<svg width="374" height="140" viewBox="0 0 374 140" fill="none" xmlns="http://www.w3.org/2000/svg">
<mask id="path-1-outside-1_2899_18" maskUnits="userSpaceOnUse" x="0" y="0" width="374" height="140" fill="black">
<rect fill="white" width="374" height="140"/>
<path d="M39.2815 41.55C36.521 41.55 34.4506 40.9256 33.0703 39.6768C31.69 38.3623 30.9999 36.5548 30.9999 34.2543C30.9999 31.9539 31.8872 30.0478 33.6618 28.5361C35.5022 26.9587 37.7698 26.1699 40.4646 26.1699C42.8965 26.1699 44.8683 26.7615 46.38 27.9446C47.8917 29.1276 48.6476 30.8037 48.6476 32.9727C48.6476 35.6017 47.7931 37.705 46.0842 39.2824C44.3753 40.7941 42.1077 41.55 39.2815 41.55ZM57.0277 72.2116C57.8822 72.2116 58.5394 72.6388 58.9995 73.4932C59.5253 74.282 59.7882 75.3007 59.7882 76.5495C59.7882 78.0612 59.5582 79.2443 59.0981 80.0988C58.638 80.9532 57.915 81.7091 56.9291 82.3664C52.3283 85.3898 46.1828 89.5634 38.4928 94.8873C35.9294 108.558 32.6102 119.305 28.5352 127.126C24.4601 134.948 19.2677 138.859 12.9579 138.859C9.5401 138.859 6.81244 137.807 4.77491 135.704C2.67165 133.666 1.62002 130.971 1.62002 127.619C1.62002 122.953 3.42751 117.957 7.04248 112.634C10.6575 107.375 17.4602 100.868 27.4507 93.1127L28.1408 88.0846C29.061 81.7748 29.784 75.5636 30.3098 69.451C30.7041 65.9018 31.3285 60.6108 32.183 53.578C32.4459 51.6719 33.1689 50.2917 34.352 49.4372C35.5351 48.517 37.3425 48.057 39.7744 48.057C41.7462 48.057 43.0279 48.3527 43.6195 48.9443C44.2767 49.5358 44.6054 50.3574 44.6054 51.409C44.6054 54.4325 43.5209 62.7798 41.3519 76.4509L40.366 83.2537C45.6241 79.3101 50.4222 75.8923 54.7601 73.0003C55.6146 72.4745 56.3705 72.2116 57.0277 72.2116ZM14.0424 129.295C15.7513 129.295 17.6245 127.356 19.662 123.478C21.6996 119.601 23.6056 113.357 25.3803 104.746C20.385 109.019 16.8029 112.864 14.6339 116.281C12.3992 119.765 11.2819 122.821 11.2819 125.45C11.2819 128.014 12.202 129.295 14.0424 129.295ZM62.7621 94.493C59.8044 94.493 57.3725 93.1456 55.4665 90.4508C53.6261 87.6902 52.7059 84.2724 52.7059 80.1974C52.7059 75.2679 53.0346 70.7656 53.6918 66.6905C54.3491 62.5497 55.4336 58.1789 56.9453 53.578C57.6026 51.6062 58.5227 50.1931 59.7058 49.3386C60.8889 48.4842 62.7621 48.057 65.3255 48.057C66.7715 48.057 67.7574 48.287 68.2832 48.7471C68.8747 49.2072 69.1705 49.8973 69.1705 50.8175C69.1705 51.3433 68.809 53.1179 68.086 56.1414C67.4287 58.5733 66.9029 60.7751 66.5086 62.7469C65.194 69.6482 64.5368 74.2491 64.5368 76.5495C64.5368 77.9298 64.7011 78.9157 65.0297 79.5072C65.3583 80.0331 65.8842 80.296 66.6071 80.296C67.593 80.296 68.809 79.3101 70.255 77.3383C71.7667 75.3664 73.3441 72.3759 74.9873 68.3665C76.6962 64.3572 78.3394 59.4277 79.9168 53.578C80.4426 51.6062 81.2314 50.1931 82.283 49.3386C83.4003 48.4842 85.0435 48.057 87.2125 48.057C88.7242 48.057 89.7758 48.2541 90.3674 48.6485C90.9589 48.9771 91.2547 49.6344 91.2547 50.6203C91.2547 52.2635 90.4331 56.7658 88.7899 64.1272C86.9496 72.5402 86.0294 77.7326 86.0294 79.7044C86.0294 80.9532 86.2923 81.9391 86.8181 82.6621C87.344 83.3194 88.0341 83.648 88.8885 83.648C90.2031 83.648 91.7477 82.8593 93.5223 81.2819C95.3626 79.6387 97.7945 77.0096 100.818 73.3946C101.607 72.4745 102.494 72.0144 103.48 72.0144C104.334 72.0144 104.992 72.4087 105.452 73.1975C105.978 73.9862 106.24 75.0707 106.24 76.4509C106.24 79.08 105.616 81.1175 104.367 82.5635C101.541 86.0471 98.4847 88.9062 95.1983 91.1409C91.9777 93.3756 88.297 94.493 84.1562 94.493C81.0013 94.493 78.668 93.277 77.1563 90.8451C75.7103 88.4132 74.9873 84.9954 74.9873 80.5917C73.87 85.0612 72.1939 88.5118 69.9592 90.9437C67.7245 93.3099 65.3255 94.493 62.7621 94.493ZM116.584 96.6619C113.166 96.6619 110.537 95.8732 108.697 94.2958C106.922 92.7183 106.035 90.9437 106.035 88.9719C106.035 87.263 106.659 85.7841 107.908 84.5353C109.157 83.2865 110.997 82.6621 113.429 82.6621C114.283 82.6621 115.269 82.7607 116.387 82.9579C117.57 83.0893 118.457 83.1879 119.049 83.2537C118.983 81.5448 118.589 79.9345 117.866 78.4227C117.208 76.911 116.354 75.465 115.302 74.0848C114.251 72.6388 113.265 71.39 112.345 70.3383C110.307 74.2162 108.269 77.4368 106.232 80.0002C104.26 82.5635 102.091 84.9954 99.725 87.2959C98.5419 88.4789 97.2931 89.0705 95.9786 89.0705C94.9269 89.0705 94.0725 88.709 93.4152 87.986C92.7579 87.1973 92.4293 86.2442 92.4293 85.1269C92.4293 83.8123 92.8894 82.5964 93.8096 81.479L95.0912 79.9016C98.7062 75.4322 101.434 71.7515 103.274 68.8595C104.392 66.9534 105.706 64.4229 107.218 61.268C108.73 58.0474 110.208 54.7282 111.654 51.3104C112.903 48.4185 115.499 46.9725 119.443 46.9725C121.283 46.9725 122.565 47.1368 123.288 47.4654C124.011 47.7941 124.373 48.3199 124.373 49.0429C124.373 49.4372 124.241 50.0616 123.978 50.9161C123.715 51.7705 123.354 52.625 122.894 53.4794C121.711 55.8456 121.119 57.8503 121.119 59.4934C121.119 60.4793 121.448 61.5638 122.105 62.7469C122.828 63.93 123.912 65.4088 125.358 67.1835C127.462 69.944 129.039 72.3102 130.091 74.282C131.208 76.188 131.767 78.2913 131.767 80.5917C131.767 81.249 131.701 82.1692 131.57 83.3523C134.79 82.1034 138.57 78.7842 142.908 73.3946C143.696 72.4745 144.584 72.0144 145.569 72.0144C146.424 72.0144 147.081 72.4087 147.541 73.1975C148.067 73.9862 148.33 75.0707 148.33 76.4509C148.33 78.9486 147.706 80.9861 146.457 82.5635C143.17 86.6386 140.016 89.432 136.992 90.9437C134.034 92.3897 130.354 93.1784 125.95 93.3099C123.321 95.5446 120.199 96.6619 116.584 96.6619ZM184.292 72.0144C185.146 72.0144 185.803 72.4087 186.263 73.1975C186.789 73.9862 187.052 75.0707 187.052 76.4509C187.052 79.08 186.428 81.1175 185.179 82.5635C182.353 86.0471 179.263 88.9062 175.911 91.1409C172.559 93.3756 168.714 94.493 164.376 94.493C150.968 94.493 144.264 85.0612 144.264 66.1976C144.264 63.3056 144.362 60.3807 144.56 57.423H140.715C138.743 57.423 137.395 57.0615 136.672 56.3385C136.015 55.6155 135.687 54.4653 135.687 52.8879C135.687 49.2072 137.165 47.3668 140.123 47.3668H145.743C146.86 40.1369 148.569 33.5313 150.869 27.5502C153.17 21.5691 155.93 16.8039 159.151 13.2546C162.437 9.70537 165.954 7.93074 169.7 7.93074C172.461 7.93074 174.63 9.14669 176.207 11.5786C177.785 14.0105 178.573 17.0668 178.573 20.7475C178.573 30.9351 174.301 39.8082 165.757 47.3668H176.799C177.85 47.3668 178.606 47.5969 179.066 48.057C179.526 48.517 179.756 49.3715 179.756 50.6203C179.756 55.1555 176.043 57.423 168.616 57.423H156.588C156.456 60.7094 156.39 63.2727 156.39 65.1131C156.39 71.9487 157.179 76.7467 158.757 79.5072C160.4 82.2678 162.963 83.648 166.447 83.648C169.273 83.648 171.771 82.7936 173.94 81.0847C176.109 79.3758 178.672 76.8124 181.63 73.3946C182.418 72.4745 183.306 72.0144 184.292 72.0144ZM167.038 17.3954C166.052 17.3954 164.935 18.6442 163.686 21.1418C162.503 23.5737 161.353 26.9915 160.235 31.3952C159.184 35.7332 158.297 40.5641 157.574 45.888C161.451 42.5359 164.343 38.7895 166.25 34.6487C168.221 30.4422 169.207 26.63 169.207 23.2122C169.207 19.3343 168.484 17.3954 167.038 17.3954ZM235.024 72.0144C235.878 72.0144 236.536 72.4087 236.996 73.1975C237.521 73.9862 237.784 75.0707 237.784 76.4509C237.784 79.08 237.16 81.1175 235.911 82.5635C233.216 85.8499 230.259 88.6761 227.038 91.0423C223.817 93.3427 220.63 94.493 217.475 94.493C212.48 94.493 208.667 91.5681 206.038 85.7184C203.278 89.2019 200.846 91.5352 198.743 92.7183C196.705 93.9014 194.306 94.493 191.546 94.493C187.536 94.493 184.217 93.0141 181.588 90.0564C179.025 87.033 177.743 83.1222 177.743 78.3242C177.743 73.066 178.86 68.2022 181.095 63.7328C183.33 59.1977 186.386 55.517 190.264 52.6907C194.208 49.7987 198.611 48.0898 203.475 47.564C204.724 34.813 207.09 23.9352 210.573 14.9306C214.123 5.86035 218.756 1.3252 224.475 1.3252C227.301 1.3252 229.634 2.60687 231.475 5.17022C233.381 7.73356 234.334 11.6114 234.334 16.8039C234.334 24.1653 232.526 32.7755 228.911 42.6345C225.296 52.4935 220.465 62.6154 214.419 73.0003C214.681 76.8124 215.24 79.5401 216.095 81.1833C217.015 82.8264 218.165 83.648 219.545 83.648C221.32 83.648 223.127 82.8593 224.968 81.2819C226.808 79.7044 229.273 77.0753 232.362 73.3946C233.151 72.4745 234.038 72.0144 235.024 72.0144ZM223.39 10.987C222.141 10.987 220.893 13.2217 219.644 17.6912C218.395 22.0949 217.31 27.8788 216.39 35.043C215.536 42.2073 214.911 49.7001 214.517 57.5216C221.879 41.4843 225.559 28.6018 225.559 18.8743C225.559 16.3766 225.329 14.4377 224.869 13.0574C224.475 11.6772 223.982 10.987 223.39 10.987ZM194.996 84.5353C196.245 84.5353 197.494 84.0424 198.743 83.0565C199.991 82.0049 201.569 80.0988 203.475 77.3383C202.818 73.789 202.489 69.8125 202.489 65.4088C202.489 63.8314 202.555 61.268 202.686 57.7188C199.071 58.8362 196.048 61.268 193.616 65.0145C191.25 68.6952 190.067 72.8031 190.067 77.3383C190.067 82.1363 191.71 84.5353 194.996 84.5353ZM280.045 63.7328C280.899 63.7328 281.557 64.16 282.017 65.0145C282.477 65.8689 282.707 66.9534 282.707 68.268C282.707 71.4228 281.754 73.2961 279.848 73.8876C275.904 75.2679 271.566 76.0566 266.834 76.2538C265.585 81.7748 263.12 86.2114 259.44 89.5634C255.759 92.8498 251.585 94.493 246.919 94.493C242.975 94.493 239.59 93.5399 236.764 91.6338C234.003 89.7278 231.9 87.1973 230.454 84.0424C229.008 80.8875 228.285 77.4697 228.285 73.789C228.285 68.7938 229.238 64.3572 231.144 60.4793C233.05 56.5357 235.679 53.4794 239.031 51.3104C242.383 49.0757 246.097 47.9584 250.172 47.9584C255.167 47.9584 259.177 49.7001 262.2 53.1836C265.289 56.6014 267.097 60.8408 267.623 65.9018C270.712 65.7046 274.392 65.0473 278.665 63.93C279.19 63.7985 279.651 63.7328 280.045 63.7328ZM247.707 84.0424C249.811 84.0424 251.618 83.1879 253.13 81.479C254.707 79.7701 255.759 77.3054 256.285 74.0848C254.247 72.7045 252.67 70.897 251.552 68.6623C250.501 66.4276 249.975 64.0614 249.975 61.5638C249.975 60.5122 250.074 59.4606 250.271 58.4089H249.778C247.149 58.4089 244.947 59.6906 243.172 62.2539C241.463 64.7516 240.609 68.3008 240.609 72.9017C240.609 76.5167 241.299 79.2772 242.679 81.1833C244.125 83.0893 245.801 84.0424 247.707 84.0424ZM287.16 41.55C284.4 41.55 282.329 40.9256 280.949 39.6768C279.569 38.3623 278.879 36.5548 278.879 34.2543C278.879 31.9539 279.766 30.0478 281.541 28.5361C283.381 26.9587 285.649 26.1699 288.343 26.1699C290.775 26.1699 292.747 26.7615 294.259 27.9446C295.771 29.1276 296.526 30.8037 296.526 32.9727C296.526 35.6017 295.672 37.705 293.963 39.2824C292.254 40.7941 289.987 41.55 287.16 41.55ZM286.372 94.493C282.099 94.493 278.977 92.9812 277.006 89.9578C275.1 86.9344 274.146 82.925 274.146 77.9298C274.146 74.9721 274.508 71.1928 275.231 66.5919C276.02 61.9253 277.006 57.5873 278.189 53.578C278.78 51.4748 279.569 50.0288 280.555 49.24C281.541 48.4513 283.118 48.057 285.287 48.057C288.639 48.057 290.315 49.1743 290.315 51.409C290.315 53.0522 289.691 56.8644 288.442 62.8455C286.865 70.0754 286.076 74.9721 286.076 77.5354C286.076 79.5072 286.339 81.019 286.865 82.0706C287.39 83.1222 288.278 83.648 289.527 83.648C290.71 83.648 292.188 82.8264 293.963 81.1833C295.738 79.5401 298.104 76.9439 301.062 73.3946C301.85 72.4745 302.738 72.0144 303.724 72.0144C304.578 72.0144 305.235 72.4087 305.695 73.1975C306.221 73.9862 306.484 75.0707 306.484 76.4509C306.484 79.08 305.86 81.1175 304.611 82.5635C298.104 90.5165 292.024 94.493 286.372 94.493ZM314.775 57.423C314.643 60.7094 314.578 63.2727 314.578 65.1131C314.578 69.8454 314.808 73.559 315.268 76.2538C315.794 78.8828 316.615 80.7889 317.733 81.972C318.916 83.0893 320.526 83.648 322.563 83.648C323.615 83.648 324.864 83.3194 326.31 82.6621C327.756 82.0049 329.07 81.1504 330.254 80.0988C330.977 79.4415 331.7 79.1129 332.423 79.1129C333.211 79.1129 333.836 79.573 334.296 80.4931C334.822 81.3476 335.084 82.3992 335.084 83.648C335.084 84.8968 334.822 86.1128 334.296 87.2959C333.836 88.4789 333.113 89.4649 332.127 90.2536C328.709 93.0798 324.831 94.493 320.493 94.493C314.249 94.493 309.681 91.8967 306.789 86.7043C303.897 81.4462 302.451 74.6106 302.451 66.1976C302.451 63.3056 302.55 60.3807 302.747 57.423H298.902C296.93 57.423 295.583 57.0615 294.86 56.3385C294.202 55.6155 293.874 54.4653 293.874 52.8879C293.874 49.2072 295.353 47.3668 298.31 47.3668H303.93C305.047 40.1369 306.756 33.5313 309.057 27.5502C311.357 21.5691 314.118 16.8039 317.338 13.2546C320.625 9.70537 324.141 7.93074 327.887 7.93074C330.648 7.93074 332.817 9.14669 334.394 11.5786C335.972 14.0105 336.76 17.0668 336.76 20.7475C336.76 30.9351 332.488 39.8082 323.944 47.3668H334.986C336.037 47.3668 336.793 47.5969 337.253 48.057C337.714 48.517 337.944 49.3715 337.944 50.6203C337.944 55.1555 334.23 57.423 326.803 57.423H314.775ZM325.225 17.3954C324.24 17.3954 323.122 18.6442 321.873 21.1418C320.69 23.5737 319.54 26.9915 318.423 31.3952C317.371 35.7332 316.484 40.5641 315.761 45.888C319.639 42.5359 322.531 38.7895 324.437 34.6487C326.409 30.4422 327.394 26.63 327.394 23.2122C327.394 19.3343 326.671 17.3954 325.225 17.3954ZM352.201 70.9299C350.887 70.9299 349.802 70.6341 348.948 70.0426C348.093 69.451 347.666 68.5309 347.666 67.2821L347.765 66.4933C348.882 59.1319 350.394 50.7518 352.3 41.3528C354.206 31.9539 355.981 23.8366 357.624 17.001C358.675 12.7945 361.535 10.6913 366.201 10.6913C370.408 10.6913 372.511 12.0387 372.511 14.7335C372.511 15.325 372.412 15.9823 372.215 16.7053C370.506 23.6723 368.239 32.1182 365.412 42.043C362.586 51.902 359.891 60.4793 357.328 67.775C356.605 69.8783 354.896 70.9299 352.201 70.9299ZM348.455 94.493C345.563 94.493 343.361 93.7042 341.849 92.1268C340.403 90.5493 339.68 88.4789 339.68 85.9156C339.68 82.9579 340.502 80.5917 342.145 78.8171C343.854 77.0425 346.22 76.1552 349.244 76.1552C352.136 76.1552 354.305 76.8782 355.751 78.3242C357.262 79.7044 358.018 81.7748 358.018 84.5353C358.018 87.5588 357.164 89.9907 355.455 91.831C353.746 93.6056 351.413 94.493 348.455 94.493Z"/>
</mask>
<path d="M39.2815 41.55C36.521 41.55 34.4506 40.9256 33.0703 39.6768C31.69 38.3623 30.9999 36.5548 30.9999 34.2543C30.9999 31.9539 31.8872 30.0478 33.6618 28.5361C35.5022 26.9587 37.7698 26.1699 40.4646 26.1699C42.8965 26.1699 44.8683 26.7615 46.38 27.9446C47.8917 29.1276 48.6476 30.8037 48.6476 32.9727C48.6476 35.6017 47.7931 37.705 46.0842 39.2824C44.3753 40.7941 42.1077 41.55 39.2815 41.55ZM57.0277 72.2116C57.8822 72.2116 58.5394 72.6388 58.9995 73.4932C59.5253 74.282 59.7882 75.3007 59.7882 76.5495C59.7882 78.0612 59.5582 79.2443 59.0981 80.0988C58.638 80.9532 57.915 81.7091 56.9291 82.3664C52.3283 85.3898 46.1828 89.5634 38.4928 94.8873C35.9294 108.558 32.6102 119.305 28.5352 127.126C24.4601 134.948 19.2677 138.859 12.9579 138.859C9.5401 138.859 6.81244 137.807 4.77491 135.704C2.67165 133.666 1.62002 130.971 1.62002 127.619C1.62002 122.953 3.42751 117.957 7.04248 112.634C10.6575 107.375 17.4602 100.868 27.4507 93.1127L28.1408 88.0846C29.061 81.7748 29.784 75.5636 30.3098 69.451C30.7041 65.9018 31.3285 60.6108 32.183 53.578C32.4459 51.6719 33.1689 50.2917 34.352 49.4372C35.5351 48.517 37.3425 48.057 39.7744 48.057C41.7462 48.057 43.0279 48.3527 43.6195 48.9443C44.2767 49.5358 44.6054 50.3574 44.6054 51.409C44.6054 54.4325 43.5209 62.7798 41.3519 76.4509L40.366 83.2537C45.6241 79.3101 50.4222 75.8923 54.7601 73.0003C55.6146 72.4745 56.3705 72.2116 57.0277 72.2116ZM14.0424 129.295C15.7513 129.295 17.6245 127.356 19.662 123.478C21.6996 119.601 23.6056 113.357 25.3803 104.746C20.385 109.019 16.8029 112.864 14.6339 116.281C12.3992 119.765 11.2819 122.821 11.2819 125.45C11.2819 128.014 12.202 129.295 14.0424 129.295ZM62.7621 94.493C59.8044 94.493 57.3725 93.1456 55.4665 90.4508C53.6261 87.6902 52.7059 84.2724 52.7059 80.1974C52.7059 75.2679 53.0346 70.7656 53.6918 66.6905C54.3491 62.5497 55.4336 58.1789 56.9453 53.578C57.6026 51.6062 58.5227 50.1931 59.7058 49.3386C60.8889 48.4842 62.7621 48.057 65.3255 48.057C66.7715 48.057 67.7574 48.287 68.2832 48.7471C68.8747 49.2072 69.1705 49.8973 69.1705 50.8175C69.1705 51.3433 68.809 53.1179 68.086 56.1414C67.4287 58.5733 66.9029 60.7751 66.5086 62.7469C65.194 69.6482 64.5368 74.2491 64.5368 76.5495C64.5368 77.9298 64.7011 78.9157 65.0297 79.5072C65.3583 80.0331 65.8842 80.296 66.6071 80.296C67.593 80.296 68.809 79.3101 70.255 77.3383C71.7667 75.3664 73.3441 72.3759 74.9873 68.3665C76.6962 64.3572 78.3394 59.4277 79.9168 53.578C80.4426 51.6062 81.2314 50.1931 82.283 49.3386C83.4003 48.4842 85.0435 48.057 87.2125 48.057C88.7242 48.057 89.7758 48.2541 90.3674 48.6485C90.9589 48.9771 91.2547 49.6344 91.2547 50.6203C91.2547 52.2635 90.4331 56.7658 88.7899 64.1272C86.9496 72.5402 86.0294 77.7326 86.0294 79.7044C86.0294 80.9532 86.2923 81.9391 86.8181 82.6621C87.344 83.3194 88.0341 83.648 88.8885 83.648C90.2031 83.648 91.7477 82.8593 93.5223 81.2819C95.3626 79.6387 97.7945 77.0096 100.818 73.3946C101.607 72.4745 102.494 72.0144 103.48 72.0144C104.334 72.0144 104.992 72.4087 105.452 73.1975C105.978 73.9862 106.24 75.0707 106.24 76.4509C106.24 79.08 105.616 81.1175 104.367 82.5635C101.541 86.0471 98.4847 88.9062 95.1983 91.1409C91.9777 93.3756 88.297 94.493 84.1562 94.493C81.0013 94.493 78.668 93.277 77.1563 90.8451C75.7103 88.4132 74.9873 84.9954 74.9873 80.5917C73.87 85.0612 72.1939 88.5118 69.9592 90.9437C67.7245 93.3099 65.3255 94.493 62.7621 94.493ZM116.584 96.6619C113.166 96.6619 110.537 95.8732 108.697 94.2958C106.922 92.7183 106.035 90.9437 106.035 88.9719C106.035 87.263 106.659 85.7841 107.908 84.5353C109.157 83.2865 110.997 82.6621 113.429 82.6621C114.283 82.6621 115.269 82.7607 116.387 82.9579C117.57 83.0893 118.457 83.1879 119.049 83.2537C118.983 81.5448 118.589 79.9345 117.866 78.4227C117.208 76.911 116.354 75.465 115.302 74.0848C114.251 72.6388 113.265 71.39 112.345 70.3383C110.307 74.2162 108.269 77.4368 106.232 80.0002C104.26 82.5635 102.091 84.9954 99.725 87.2959C98.5419 88.4789 97.2931 89.0705 95.9786 89.0705C94.9269 89.0705 94.0725 88.709 93.4152 87.986C92.7579 87.1973 92.4293 86.2442 92.4293 85.1269C92.4293 83.8123 92.8894 82.5964 93.8096 81.479L95.0912 79.9016C98.7062 75.4322 101.434 71.7515 103.274 68.8595C104.392 66.9534 105.706 64.4229 107.218 61.268C108.73 58.0474 110.208 54.7282 111.654 51.3104C112.903 48.4185 115.499 46.9725 119.443 46.9725C121.283 46.9725 122.565 47.1368 123.288 47.4654C124.011 47.7941 124.373 48.3199 124.373 49.0429C124.373 49.4372 124.241 50.0616 123.978 50.9161C123.715 51.7705 123.354 52.625 122.894 53.4794C121.711 55.8456 121.119 57.8503 121.119 59.4934C121.119 60.4793 121.448 61.5638 122.105 62.7469C122.828 63.93 123.912 65.4088 125.358 67.1835C127.462 69.944 129.039 72.3102 130.091 74.282C131.208 76.188 131.767 78.2913 131.767 80.5917C131.767 81.249 131.701 82.1692 131.57 83.3523C134.79 82.1034 138.57 78.7842 142.908 73.3946C143.696 72.4745 144.584 72.0144 145.569 72.0144C146.424 72.0144 147.081 72.4087 147.541 73.1975C148.067 73.9862 148.33 75.0707 148.33 76.4509C148.33 78.9486 147.706 80.9861 146.457 82.5635C143.17 86.6386 140.016 89.432 136.992 90.9437C134.034 92.3897 130.354 93.1784 125.95 93.3099C123.321 95.5446 120.199 96.6619 116.584 96.6619ZM184.292 72.0144C185.146 72.0144 185.803 72.4087 186.263 73.1975C186.789 73.9862 187.052 75.0707 187.052 76.4509C187.052 79.08 186.428 81.1175 185.179 82.5635C182.353 86.0471 179.263 88.9062 175.911 91.1409C172.559 93.3756 168.714 94.493 164.376 94.493C150.968 94.493 144.264 85.0612 144.264 66.1976C144.264 63.3056 144.362 60.3807 144.56 57.423H140.715C138.743 57.423 137.395 57.0615 136.672 56.3385C136.015 55.6155 135.687 54.4653 135.687 52.8879C135.687 49.2072 137.165 47.3668 140.123 47.3668H145.743C146.86 40.1369 148.569 33.5313 150.869 27.5502C153.17 21.5691 155.93 16.8039 159.151 13.2546C162.437 9.70537 165.954 7.93074 169.7 7.93074C172.461 7.93074 174.63 9.14669 176.207 11.5786C177.785 14.0105 178.573 17.0668 178.573 20.7475C178.573 30.9351 174.301 39.8082 165.757 47.3668H176.799C177.85 47.3668 178.606 47.5969 179.066 48.057C179.526 48.517 179.756 49.3715 179.756 50.6203C179.756 55.1555 176.043 57.423 168.616 57.423H156.588C156.456 60.7094 156.39 63.2727 156.39 65.1131C156.39 71.9487 157.179 76.7467 158.757 79.5072C160.4 82.2678 162.963 83.648 166.447 83.648C169.273 83.648 171.771 82.7936 173.94 81.0847C176.109 79.3758 178.672 76.8124 181.63 73.3946C182.418 72.4745 183.306 72.0144 184.292 72.0144ZM167.038 17.3954C166.052 17.3954 164.935 18.6442 163.686 21.1418C162.503 23.5737 161.353 26.9915 160.235 31.3952C159.184 35.7332 158.297 40.5641 157.574 45.888C161.451 42.5359 164.343 38.7895 166.25 34.6487C168.221 30.4422 169.207 26.63 169.207 23.2122C169.207 19.3343 168.484 17.3954 167.038 17.3954ZM235.024 72.0144C235.878 72.0144 236.536 72.4087 236.996 73.1975C237.521 73.9862 237.784 75.0707 237.784 76.4509C237.784 79.08 237.16 81.1175 235.911 82.5635C233.216 85.8499 230.259 88.6761 227.038 91.0423C223.817 93.3427 220.63 94.493 217.475 94.493C212.48 94.493 208.667 91.5681 206.038 85.7184C203.278 89.2019 200.846 91.5352 198.743 92.7183C196.705 93.9014 194.306 94.493 191.546 94.493C187.536 94.493 184.217 93.0141 181.588 90.0564C179.025 87.033 177.743 83.1222 177.743 78.3242C177.743 73.066 178.86 68.2022 181.095 63.7328C183.33 59.1977 186.386 55.517 190.264 52.6907C194.208 49.7987 198.611 48.0898 203.475 47.564C204.724 34.813 207.09 23.9352 210.573 14.9306C214.123 5.86035 218.756 1.3252 224.475 1.3252C227.301 1.3252 229.634 2.60687 231.475 5.17022C233.381 7.73356 234.334 11.6114 234.334 16.8039C234.334 24.1653 232.526 32.7755 228.911 42.6345C225.296 52.4935 220.465 62.6154 214.419 73.0003C214.681 76.8124 215.24 79.5401 216.095 81.1833C217.015 82.8264 218.165 83.648 219.545 83.648C221.32 83.648 223.127 82.8593 224.968 81.2819C226.808 79.7044 229.273 77.0753 232.362 73.3946C233.151 72.4745 234.038 72.0144 235.024 72.0144ZM223.39 10.987C222.141 10.987 220.893 13.2217 219.644 17.6912C218.395 22.0949 217.31 27.8788 216.39 35.043C215.536 42.2073 214.911 49.7001 214.517 57.5216C221.879 41.4843 225.559 28.6018 225.559 18.8743C225.559 16.3766 225.329 14.4377 224.869 13.0574C224.475 11.6772 223.982 10.987 223.39 10.987ZM194.996 84.5353C196.245 84.5353 197.494 84.0424 198.743 83.0565C199.991 82.0049 201.569 80.0988 203.475 77.3383C202.818 73.789 202.489 69.8125 202.489 65.4088C202.489 63.8314 202.555 61.268 202.686 57.7188C199.071 58.8362 196.048 61.268 193.616 65.0145C191.25 68.6952 190.067 72.8031 190.067 77.3383C190.067 82.1363 191.71 84.5353 194.996 84.5353ZM280.045 63.7328C280.899 63.7328 281.557 64.16 282.017 65.0145C282.477 65.8689 282.707 66.9534 282.707 68.268C282.707 71.4228 281.754 73.2961 279.848 73.8876C275.904 75.2679 271.566 76.0566 266.834 76.2538C265.585 81.7748 263.12 86.2114 259.44 89.5634C255.759 92.8498 251.585 94.493 246.919 94.493C242.975 94.493 239.59 93.5399 236.764 91.6338C234.003 89.7278 231.9 87.1973 230.454 84.0424C229.008 80.8875 228.285 77.4697 228.285 73.789C228.285 68.7938 229.238 64.3572 231.144 60.4793C233.05 56.5357 235.679 53.4794 239.031 51.3104C242.383 49.0757 246.097 47.9584 250.172 47.9584C255.167 47.9584 259.177 49.7001 262.2 53.1836C265.289 56.6014 267.097 60.8408 267.623 65.9018C270.712 65.7046 274.392 65.0473 278.665 63.93C279.19 63.7985 279.651 63.7328 280.045 63.7328ZM247.707 84.0424C249.811 84.0424 251.618 83.1879 253.13 81.479C254.707 79.7701 255.759 77.3054 256.285 74.0848C254.247 72.7045 252.67 70.897 251.552 68.6623C250.501 66.4276 249.975 64.0614 249.975 61.5638C249.975 60.5122 250.074 59.4606 250.271 58.4089H249.778C247.149 58.4089 244.947 59.6906 243.172 62.2539C241.463 64.7516 240.609 68.3008 240.609 72.9017C240.609 76.5167 241.299 79.2772 242.679 81.1833C244.125 83.0893 245.801 84.0424 247.707 84.0424ZM287.16 41.55C284.4 41.55 282.329 40.9256 280.949 39.6768C279.569 38.3623 278.879 36.5548 278.879 34.2543C278.879 31.9539 279.766 30.0478 281.541 28.5361C283.381 26.9587 285.649 26.1699 288.343 26.1699C290.775 26.1699 292.747 26.7615 294.259 27.9446C295.771 29.1276 296.526 30.8037 296.526 32.9727C296.526 35.6017 295.672 37.705 293.963 39.2824C292.254 40.7941 289.987 41.55 287.16 41.55ZM286.372 94.493C282.099 94.493 278.977 92.9812 277.006 89.9578C275.1 86.9344 274.146 82.925 274.146 77.9298C274.146 74.9721 274.508 71.1928 275.231 66.5919C276.02 61.9253 277.006 57.5873 278.189 53.578C278.78 51.4748 279.569 50.0288 280.555 49.24C281.541 48.4513 283.118 48.057 285.287 48.057C288.639 48.057 290.315 49.1743 290.315 51.409C290.315 53.0522 289.691 56.8644 288.442 62.8455C286.865 70.0754 286.076 74.9721 286.076 77.5354C286.076 79.5072 286.339 81.019 286.865 82.0706C287.39 83.1222 288.278 83.648 289.527 83.648C290.71 83.648 292.188 82.8264 293.963 81.1833C295.738 79.5401 298.104 76.9439 301.062 73.3946C301.85 72.4745 302.738 72.0144 303.724 72.0144C304.578 72.0144 305.235 72.4087 305.695 73.1975C306.221 73.9862 306.484 75.0707 306.484 76.4509C306.484 79.08 305.86 81.1175 304.611 82.5635C298.104 90.5165 292.024 94.493 286.372 94.493ZM314.775 57.423C314.643 60.7094 314.578 63.2727 314.578 65.1131C314.578 69.8454 314.808 73.559 315.268 76.2538C315.794 78.8828 316.615 80.7889 317.733 81.972C318.916 83.0893 320.526 83.648 322.563 83.648C323.615 83.648 324.864 83.3194 326.31 82.6621C327.756 82.0049 329.07 81.1504 330.254 80.0988C330.977 79.4415 331.7 79.1129 332.423 79.1129C333.211 79.1129 333.836 79.573 334.296 80.4931C334.822 81.3476 335.084 82.3992 335.084 83.648C335.084 84.8968 334.822 86.1128 334.296 87.2959C333.836 88.4789 333.113 89.4649 332.127 90.2536C328.709 93.0798 324.831 94.493 320.493 94.493C314.249 94.493 309.681 91.8967 306.789 86.7043C303.897 81.4462 302.451 74.6106 302.451 66.1976C302.451 63.3056 302.55 60.3807 302.747 57.423H298.902C296.93 57.423 295.583 57.0615 294.86 56.3385C294.202 55.6155 293.874 54.4653 293.874 52.8879C293.874 49.2072 295.353 47.3668 298.31 47.3668H303.93C305.047 40.1369 306.756 33.5313 309.057 27.5502C311.357 21.5691 314.118 16.8039 317.338 13.2546C320.625 9.70537 324.141 7.93074 327.887 7.93074C330.648 7.93074 332.817 9.14669 334.394 11.5786C335.972 14.0105 336.76 17.0668 336.76 20.7475C336.76 30.9351 332.488 39.8082 323.944 47.3668H334.986C336.037 47.3668 336.793 47.5969 337.253 48.057C337.714 48.517 337.944 49.3715 337.944 50.6203C337.944 55.1555 334.23 57.423 326.803 57.423H314.775ZM325.225 17.3954C324.24 17.3954 323.122 18.6442 321.873 21.1418C320.69 23.5737 319.54 26.9915 318.423 31.3952C317.371 35.7332 316.484 40.5641 315.761 45.888C319.639 42.5359 322.531 38.7895 324.437 34.6487C326.409 30.4422 327.394 26.63 327.394 23.2122C327.394 19.3343 326.671 17.3954 325.225 17.3954ZM352.201 70.9299C350.887 70.9299 349.802 70.6341 348.948 70.0426C348.093 69.451 347.666 68.5309 347.666 67.2821L347.765 66.4933C348.882 59.1319 350.394 50.7518 352.3 41.3528C354.206 31.9539 355.981 23.8366 357.624 17.001C358.675 12.7945 361.535 10.6913 366.201 10.6913C370.408 10.6913 372.511 12.0387 372.511 14.7335C372.511 15.325 372.412 15.9823 372.215 16.7053C370.506 23.6723 368.239 32.1182 365.412 42.043C362.586 51.902 359.891 60.4793 357.328 67.775C356.605 69.8783 354.896 70.9299 352.201 70.9299ZM348.455 94.493C345.563 94.493 343.361 93.7042 341.849 92.1268C340.403 90.5493 339.68 88.4789 339.68 85.9156C339.68 82.9579 340.502 80.5917 342.145 78.8171C343.854 77.0425 346.22 76.1552 349.244 76.1552C352.136 76.1552 354.305 76.8782 355.751 78.3242C357.262 79.7044 358.018 81.7748 358.018 84.5353C358.018 87.5588 357.164 89.9907 355.455 91.831C353.746 93.6056 351.413 94.493 348.455 94.493Z" fill="#C9CAD0"/>
<path d="M33.0703 39.6768L32.3806 40.4009L32.3899 40.4098L32.3994 40.4183L33.0703 39.6768ZM33.6618 28.5361L34.3103 29.2973L34.3126 29.2954L33.6618 28.5361ZM46.38 27.9446L46.9963 27.1571L46.9963 27.1571L46.38 27.9446ZM46.0842 39.2824L46.7468 40.0314L46.7547 40.0244L46.7625 40.0172L46.0842 39.2824ZM58.9995 73.4932L58.1191 73.9673L58.1414 74.0088L58.1675 74.0479L58.9995 73.4932ZM59.0981 80.0988L59.9786 80.5729L59.9786 80.5729L59.0981 80.0988ZM56.9291 82.3664L57.4783 83.2021L57.4838 83.1984L56.9291 82.3664ZM38.4928 94.8873L37.9236 94.0651L37.5856 94.2991L37.5099 94.703L38.4928 94.8873ZM28.5352 127.126L29.422 127.588L29.422 127.588L28.5352 127.126ZM4.77491 135.704L5.49315 135.008L5.4821 134.996L5.4707 134.985L4.77491 135.704ZM7.04248 112.634L6.21843 112.067L6.21518 112.072L7.04248 112.634ZM27.4507 93.1127L28.0639 93.9026L28.3859 93.6526L28.4414 93.2487L27.4507 93.1127ZM28.1408 88.0846L27.1512 87.9403L27.1501 87.9486L28.1408 88.0846ZM30.3098 69.451L29.3159 69.3406L29.3145 69.353L29.3135 69.3653L30.3098 69.451ZM32.183 53.578L31.1924 53.4414L31.1913 53.4494L31.1903 53.4574L32.183 53.578ZM34.352 49.4372L34.9375 50.2479L34.9519 50.2375L34.9659 50.2266L34.352 49.4372ZM43.6195 48.9443L42.9123 49.6514L42.9309 49.67L42.9505 49.6876L43.6195 48.9443ZM41.3519 76.4509L40.3641 76.2942L40.3622 76.3075L41.3519 76.4509ZM40.366 83.2537L39.3763 83.1102L39.0291 85.5064L40.966 84.0537L40.366 83.2537ZM54.7601 73.0003L54.236 72.1486L54.2206 72.1582L54.2054 72.1682L54.7601 73.0003ZM19.662 123.478L20.5473 123.944L20.5473 123.944L19.662 123.478ZM25.3803 104.746L26.3597 104.948L26.949 102.089L24.7303 103.986L25.3803 104.746ZM14.6339 116.281L15.4756 116.821L15.4783 116.817L14.6339 116.281ZM39.2815 41.55V40.55C36.6517 40.55 34.8661 39.953 33.7412 38.9353L33.0703 39.6768L32.3994 40.4183C34.035 41.8982 36.3902 42.55 39.2815 42.55V41.55ZM33.0703 39.6768L33.76 38.9527C32.6181 37.8651 31.9999 36.3421 31.9999 34.2543H30.9999H29.9999C29.9999 36.7675 30.762 38.8594 32.3806 40.4009L33.0703 39.6768ZM30.9999 34.2543H31.9999C31.9999 32.2514 32.7553 30.622 34.3103 29.2973L33.6618 28.5361L33.0134 27.7749C31.0192 29.4736 29.9999 31.6564 29.9999 34.2543H30.9999ZM33.6618 28.5361L34.3126 29.2954C35.9512 27.8909 37.9799 27.1699 40.4646 27.1699V26.1699V25.1699C37.5596 25.1699 35.0532 26.0264 33.011 27.7768L33.6618 28.5361ZM40.4646 26.1699V27.1699C42.7336 27.1699 44.4703 27.7198 45.7637 28.7321L46.38 27.9446L46.9963 27.1571C45.2662 25.8031 43.0593 25.1699 40.4646 25.1699V26.1699ZM46.38 27.9446L45.7637 28.7321C46.9996 29.6993 47.6476 31.0658 47.6476 32.9727H48.6476H49.6476C49.6476 30.5415 48.7838 28.556 46.9963 27.1571L46.38 27.9446ZM48.6476 32.9727H47.6476C47.6476 35.3628 46.882 37.1851 45.4059 38.5476L46.0842 39.2824L46.7625 40.0172C48.7043 38.2248 49.6476 35.8406 49.6476 32.9727H48.6476ZM46.0842 39.2824L45.4216 38.5334C43.9364 39.8473 41.9243 40.55 39.2815 40.55V41.55V42.55C42.2912 42.55 44.8143 41.741 46.7468 40.0314L46.0842 39.2824ZM57.0277 72.2116V73.2116C57.4572 73.2116 57.8046 73.3833 58.1191 73.9673L58.9995 73.4932L59.88 73.0191C59.2743 71.8943 58.3071 71.2116 57.0277 71.2116V72.2116ZM58.9995 73.4932L58.1675 74.0479C58.554 74.6276 58.7882 75.4365 58.7882 76.5495H59.7882H60.7882C60.7882 75.165 60.4967 73.9363 59.8316 72.9385L58.9995 73.4932ZM59.7882 76.5495H58.7882C58.7882 77.9795 58.5674 78.9752 58.2176 79.6247L59.0981 80.0988L59.9786 80.5729C60.549 79.5135 60.7882 78.143 60.7882 76.5495H59.7882ZM59.0981 80.0988L58.2176 79.6247C57.8506 80.3064 57.2538 80.948 56.3744 81.5343L56.9291 82.3664L57.4838 83.1984C58.5762 82.4701 59.4255 81.6 59.9786 80.5729L59.0981 80.0988ZM56.9291 82.3664L56.38 81.5306C51.7693 84.5605 45.6163 88.7393 37.9236 94.0651L38.4928 94.8873L39.062 95.7095C46.7493 90.3875 52.8872 86.2191 57.4783 83.2021L56.9291 82.3664ZM38.4928 94.8873L37.5099 94.703C34.9555 108.326 31.6595 118.965 27.6483 126.664L28.5352 127.126L29.422 127.588C33.561 119.644 36.9033 108.791 39.4756 95.0716L38.4928 94.8873ZM28.5352 127.126L27.6483 126.664C23.6674 134.305 18.7517 137.859 12.9579 137.859V138.859V139.859C19.7837 139.859 25.2528 135.591 29.422 127.588L28.5352 127.126ZM12.9579 138.859V137.859C9.76173 137.859 7.31069 136.884 5.49315 135.008L4.77491 135.704L4.05667 136.399C6.31419 138.73 9.31848 139.859 12.9579 139.859V138.859ZM4.77491 135.704L5.4707 134.985C3.59059 133.164 2.62002 130.743 2.62002 127.619H1.62002H0.620021C0.620021 131.199 1.75271 134.168 4.07911 136.422L4.77491 135.704ZM1.62002 127.619H2.62002C2.62002 123.216 4.32596 118.414 7.86979 113.195L7.04248 112.634L6.21518 112.072C2.52905 117.5 0.620021 122.69 0.620021 127.619H1.62002ZM7.04248 112.634L7.86653 113.2C11.3905 108.074 18.0913 101.644 28.0639 93.9026L27.4507 93.1127L26.8374 92.3228C16.8291 100.092 9.92441 106.677 6.21844 112.067L7.04248 112.634ZM27.4507 93.1127L28.4414 93.2487L29.1315 88.2206L28.1408 88.0846L27.1501 87.9486L26.4599 92.9767L27.4507 93.1127ZM28.1408 88.0846L29.1303 88.2289C30.0532 81.9004 30.7785 75.6697 31.3061 69.5367L30.3098 69.451L29.3135 69.3653C28.7894 75.4576 28.0687 81.6492 27.1513 87.9403L28.1408 88.0846ZM30.3098 69.451L31.3037 69.5615C31.6974 66.0175 32.3213 60.7306 33.1757 53.6986L32.183 53.578L31.1903 53.4574C30.3357 60.491 29.7108 65.7861 29.3159 69.3406L30.3098 69.451ZM32.183 53.578L33.1736 53.7146C33.4116 51.9891 34.04 50.8961 34.9375 50.2479L34.352 49.4372L33.7665 48.6265C32.2978 49.6873 31.4802 51.3547 31.1924 53.4414L32.183 53.578ZM34.352 49.4372L34.9659 50.2266C35.8938 49.5049 37.4369 49.057 39.7744 49.057V48.057V47.057C37.2482 47.057 35.1763 47.5292 33.738 48.6479L34.352 49.4372ZM39.7744 48.057V49.057C40.7182 49.057 41.4494 49.1285 41.9897 49.2532C42.5435 49.381 42.8046 49.5437 42.9123 49.6514L43.6195 48.9443L44.3266 48.2372C43.8427 47.7534 43.1672 47.4724 42.4394 47.3044C41.6981 47.1333 40.8025 47.057 39.7744 47.057V48.057ZM43.6195 48.9443L42.9505 49.6876C43.3571 50.0535 43.6054 50.5823 43.6054 51.409H44.6054H45.6054C45.6054 50.1325 45.1963 49.0181 44.2884 48.201L43.6195 48.9443ZM44.6054 51.409H43.6054C43.6054 54.3341 42.539 62.5868 40.3642 76.2942L41.3519 76.4509L42.3395 76.6076C44.5028 62.9727 45.6054 54.5308 45.6054 51.409H44.6054ZM41.3519 76.4509L40.3622 76.3075L39.3763 83.1102L40.366 83.2537L41.3556 83.3971L42.3415 76.5944L41.3519 76.4509ZM40.366 83.2537L40.966 84.0537C46.2129 80.1184 50.9956 76.7118 55.3148 73.8323L54.7601 73.0003L54.2054 72.1682C49.8487 75.0727 45.0353 78.5017 39.766 82.4537L40.366 83.2537ZM54.7601 73.0003L55.2842 73.8519C56.0578 73.3759 56.6286 73.2116 57.0277 73.2116V72.2116V71.2116C56.1123 71.2116 55.1714 71.573 54.236 72.1486L54.7601 73.0003ZM14.0424 129.295V130.295C15.2898 130.295 16.429 129.591 17.4482 128.536C18.4788 127.469 19.5082 125.921 20.5473 123.944L19.662 123.478L18.7768 123.013C17.7783 124.914 16.8523 126.274 16.0098 127.146C15.1557 128.03 14.5039 128.295 14.0424 128.295V129.295ZM19.662 123.478L20.5473 123.944C22.653 119.936 24.5811 113.577 26.3597 104.948L25.3803 104.746L24.4008 104.544C22.6301 113.136 20.7461 119.265 18.7768 123.013L19.662 123.478ZM25.3803 104.746L24.7303 103.986C19.7003 108.288 16.0346 112.208 13.7896 115.746L14.6339 116.281L15.4783 116.817C17.5713 113.519 21.0697 109.749 26.0302 105.506L25.3803 104.746ZM14.6339 116.281L13.7922 115.741C11.5086 119.301 10.2819 122.549 10.2819 125.45H11.2819H12.2819C12.2819 123.093 13.2899 120.229 15.4756 116.821L14.6339 116.281ZM11.2819 125.45H10.2819C10.2819 126.822 10.5226 128.03 11.1597 128.917C11.8407 129.866 12.8614 130.295 14.0424 130.295V129.295V128.295C13.383 128.295 13.0235 128.084 12.7843 127.751C12.5012 127.357 12.2819 126.642 12.2819 125.45H11.2819ZM55.4665 90.4508L54.6344 91.0055L54.6421 91.0169L54.65 91.0282L55.4665 90.4508ZM53.6918 66.6905L54.6791 66.8497L54.6795 66.8473L53.6918 66.6905ZM56.9453 53.578L55.9966 53.2618L55.9953 53.2659L56.9453 53.578ZM59.7058 49.3386L60.2913 50.1493L60.2913 50.1493L59.7058 49.3386ZM68.2832 48.7471L67.6247 49.4997L67.6464 49.5187L67.6692 49.5364L68.2832 48.7471ZM68.086 56.1414L69.0514 56.4023L69.0552 56.3882L69.0586 56.3739L68.086 56.1414ZM66.5086 62.7469L65.5279 62.5508L65.5262 62.5598L66.5086 62.7469ZM65.0297 79.5072L64.1555 79.9929L64.1681 80.0154L64.1817 80.0372L65.0297 79.5072ZM70.255 77.3383L69.4614 76.7298L69.4549 76.7383L69.4486 76.7469L70.255 77.3383ZM74.9873 68.3665L74.0673 67.9744L74.062 67.9873L74.9873 68.3665ZM79.9168 53.578L80.8823 53.8384L80.8831 53.8357L79.9168 53.578ZM82.283 49.3386L81.6755 48.5443L81.6638 48.5532L81.6524 48.5625L82.283 49.3386ZM90.3674 48.6485L89.8127 49.4806L89.8464 49.503L89.8817 49.5227L90.3674 48.6485ZM88.7899 64.1272L87.814 63.9093L87.813 63.9135L88.7899 64.1272ZM86.8181 82.6621L86.0094 83.2503L86.0229 83.2689L86.0373 83.2868L86.8181 82.6621ZM93.5223 81.2819L94.1866 82.0293L94.1883 82.0278L93.5223 81.2819ZM100.818 73.3946L100.059 72.7438L100.051 72.7531L100.818 73.3946ZM105.452 73.1975L104.588 73.7013L104.603 73.7272L104.62 73.7522L105.452 73.1975ZM104.367 82.5635L103.61 81.9099L103.6 81.9216L103.591 81.9335L104.367 82.5635ZM95.1983 91.1409L94.636 90.3139L94.6282 90.3193L95.1983 91.1409ZM77.1563 90.8451L76.2968 91.3562L76.3018 91.3647L76.307 91.373L77.1563 90.8451ZM74.9873 80.5917H75.9873L74.0172 80.3492L74.9873 80.5917ZM69.9592 90.9437L70.6863 91.6304L70.6955 91.6203L69.9592 90.9437ZM62.7621 94.493V93.493C60.1704 93.493 58.0268 92.3388 56.2829 89.8733L55.4665 90.4508L54.65 91.0282C56.7183 93.9523 59.4384 95.493 62.7621 95.493V94.493ZM55.4665 90.4508L56.2985 89.8961C54.5904 87.3339 53.7059 84.1204 53.7059 80.1974H52.7059H51.7059C51.7059 84.4245 52.6618 88.0466 54.6344 91.0055L55.4665 90.4508ZM52.7059 80.1974H53.7059C53.7059 75.3113 54.0317 70.8632 54.6791 66.8497L53.6918 66.6905L52.7046 66.5313C52.0374 70.6679 51.7059 75.2244 51.7059 80.1974H52.7059ZM53.6918 66.6905L54.6795 66.8473C55.3272 62.7666 56.3978 58.4479 57.8953 53.8902L56.9453 53.578L55.9953 53.2659C54.4694 57.9098 53.371 62.3329 52.7042 66.5337L53.6918 66.6905ZM56.9453 53.578L57.894 53.8942C58.5121 52.0399 59.3365 50.8389 60.2913 50.1493L59.7058 49.3386L59.1203 48.528C57.709 49.5472 56.693 51.1726 55.9966 53.2618L56.9453 53.578ZM59.7058 49.3386L60.2913 50.1493C61.2173 49.4805 62.8315 49.057 65.3255 49.057V48.057V47.057C62.6927 47.057 60.5605 47.4878 59.1203 48.528L59.7058 49.3386ZM65.3255 48.057V49.057C66.7462 49.057 67.3962 49.2997 67.6247 49.4997L68.2832 48.7471L68.9417 47.9945C68.1186 47.2743 66.7967 47.057 65.3255 47.057V48.057ZM68.2832 48.7471L67.6692 49.5364C67.9616 49.7639 68.1705 50.128 68.1705 50.8175H69.1705H70.1705C70.1705 49.6667 69.7878 48.6505 68.8971 47.9577L68.2832 48.7471ZM69.1705 50.8175H68.1705C68.1705 50.9595 68.1057 51.4289 67.9195 52.3432C67.742 53.2144 67.4739 54.4015 67.1134 55.9088L68.086 56.1414L69.0586 56.3739C69.4211 54.8578 69.6952 53.6458 69.8792 52.7424C70.0545 51.8821 70.1705 51.2012 70.1705 50.8175H69.1705ZM68.086 56.1414L67.1206 55.8804C66.459 58.3287 65.9276 60.5526 65.528 62.5508L66.5086 62.7469L67.4891 62.943C67.8782 60.9976 68.3985 58.8178 69.0514 56.4023L68.086 56.1414ZM66.5086 62.7469L65.5262 62.5598C64.2149 69.444 63.5368 74.1385 63.5368 76.5495H64.5368H65.5368C65.5368 74.3597 66.1731 69.8524 67.4909 62.934L66.5086 62.7469ZM64.5368 76.5495H63.5368C63.5368 77.9574 63.6954 79.1646 64.1555 79.9929L65.0297 79.5072L65.9039 79.0216C65.7067 78.6668 65.5368 77.9022 65.5368 76.5495H64.5368ZM65.0297 79.5072L64.1817 80.0372C64.7261 80.9082 65.6065 81.296 66.6071 81.296V80.296V79.296C66.1618 79.296 65.9906 79.1579 65.8777 78.9772L65.0297 79.5072ZM66.6071 80.296V81.296C67.4301 81.296 68.2004 80.8911 68.8883 80.3333C69.5892 79.765 70.3127 78.9506 71.0614 77.9296L70.255 77.3383L69.4486 76.7469C68.7513 77.6977 68.1438 78.3621 67.6287 78.7798C67.1007 79.2079 66.7701 79.296 66.6071 79.296V80.296ZM70.255 77.3383L71.0486 77.9467C72.6397 75.8713 74.2568 72.7859 75.9126 68.7458L74.9873 68.3665L74.062 67.9873C72.4315 71.9658 70.8937 74.8616 69.4614 76.7298L70.255 77.3383ZM74.9873 68.3665L75.9072 68.7586C77.6399 64.6936 79.2971 59.7171 80.8823 53.8384L79.9168 53.578L78.9513 53.3176C77.3817 59.1383 75.7526 64.0208 74.0674 67.9744L74.9873 68.3665ZM79.9168 53.578L80.8831 53.8357C81.3805 51.9702 82.0897 50.7841 82.9136 50.1147L82.283 49.3386L81.6524 48.5625C80.373 49.602 79.5048 51.2422 78.9506 53.3203L79.9168 53.578ZM82.283 49.3386L82.8904 50.133C83.7615 49.4669 85.151 49.057 87.2125 49.057V48.057V47.057C84.9361 47.057 83.0392 47.5014 81.6755 48.5443L82.283 49.3386ZM87.2125 48.057V49.057C88.705 49.057 89.4885 49.2645 89.8127 49.4806L90.3674 48.6485L90.9221 47.8165C90.0632 47.2438 88.7434 47.057 87.2125 47.057V48.057ZM90.3674 48.6485L89.8817 49.5227C90.0224 49.6008 90.2547 49.8137 90.2547 50.6203H91.2547H92.2547C92.2547 49.4551 91.8955 48.3535 90.853 47.7743L90.3674 48.6485ZM91.2547 50.6203H90.2547C90.2547 51.3381 90.0674 52.7886 89.6548 55.0499C89.2473 57.2827 88.6343 60.2343 87.814 63.9093L88.7899 64.1272L89.7659 64.345C90.5888 60.6586 91.2081 57.6784 91.6223 55.4089C92.0312 53.1679 92.2547 51.5457 92.2547 50.6203H91.2547ZM88.7899 64.1272L87.813 63.9135C86.8916 68.126 86.1983 71.5419 85.7349 74.1568C85.2761 76.7458 85.0294 78.6186 85.0294 79.7044H86.0294H87.0294C87.0294 78.8184 87.2428 77.1091 87.7042 74.5057C88.161 71.9282 88.848 68.5414 89.7668 64.3409L88.7899 64.1272ZM86.0294 79.7044H85.0294C85.0294 81.0829 85.3186 82.3005 86.0094 83.2503L86.8181 82.6621L87.6269 82.074C87.266 81.5778 87.0294 80.8235 87.0294 79.7044H86.0294ZM86.8181 82.6621L86.0373 83.2868C86.7562 84.1855 87.7357 84.648 88.8885 84.648V83.648V82.648C88.3325 82.648 87.9317 82.4533 87.599 82.0374L86.8181 82.6621ZM88.8885 83.648V84.648C90.5807 84.648 92.3613 83.6518 94.1866 82.0293L93.5223 81.2819L92.8579 80.5345C91.134 82.0668 89.8255 82.648 88.8885 82.648V83.648ZM93.5223 81.2819L94.1883 82.0278C96.084 80.3352 98.5531 77.6614 101.585 74.0362L100.818 73.3946L100.051 72.7531C97.036 76.3579 94.6413 78.9422 92.8563 80.5359L93.5223 81.2819ZM100.818 73.3946L101.577 74.0454C102.223 73.2916 102.852 73.0144 103.48 73.0144V72.0144V71.0144C102.136 71.0144 100.99 71.6574 100.059 72.7439L100.818 73.3946ZM103.48 72.0144V73.0144C103.95 73.0144 104.292 73.1941 104.588 73.7013L105.452 73.1975L106.315 72.6936C105.691 71.6234 104.719 71.0144 103.48 71.0144V72.0144ZM105.452 73.1975L104.62 73.7522C104.997 74.3176 105.24 75.1826 105.24 76.4509H106.24H107.24C107.24 74.9587 106.958 73.6548 106.284 72.6428L105.452 73.1975ZM106.24 76.4509H105.24C105.24 78.9303 104.652 80.7038 103.61 81.9099L104.367 82.5635L105.124 83.2172C106.58 81.5312 107.24 79.2298 107.24 76.4509H106.24ZM104.367 82.5635L103.591 81.9335C100.818 85.3509 97.8321 88.1406 94.636 90.314L95.1983 91.1409L95.7606 91.9678C99.1372 89.6717 102.264 86.7432 105.144 83.1936L104.367 82.5635ZM95.1983 91.1409L94.6282 90.3193C91.5847 92.4311 88.1054 93.493 84.1562 93.493V94.493V95.493C88.4886 95.493 92.3707 94.3201 95.7684 91.9625L95.1983 91.1409ZM84.1562 94.493V93.493C81.3049 93.493 79.3137 92.4215 78.0056 90.3172L77.1563 90.8451L76.307 91.373C78.0224 94.1325 80.6977 95.493 84.1562 95.493V94.493ZM77.1563 90.8451L78.0158 90.334C76.6994 88.12 75.9873 84.9071 75.9873 80.5917H74.9873H73.9873C73.9873 85.0838 74.7212 88.7064 76.2968 91.3562L77.1563 90.8451ZM74.9873 80.5917L74.0172 80.3492C72.9252 84.7172 71.3089 87.9971 69.2229 90.2671L69.9592 90.9437L70.6955 91.6203C73.079 89.0266 74.8148 85.4051 75.9575 80.8343L74.9873 80.5917ZM69.9592 90.9437L69.2322 90.2571C67.1324 92.4804 64.9805 93.493 62.7621 93.493V94.493V95.493C65.6705 95.493 68.3166 94.1393 70.6862 91.6303L69.9592 90.9437ZM108.697 94.2958L108.032 95.0432L108.039 95.0492L108.046 95.055L108.697 94.2958ZM107.908 84.5353L108.615 85.2424L108.615 85.2424L107.908 84.5353ZM116.387 82.9579L116.213 83.9427L116.244 83.9482L116.276 83.9518L116.387 82.9579ZM119.049 83.2537L118.938 84.2476L120.093 84.3758L120.048 83.2152L119.049 83.2537ZM117.866 78.4227L116.949 78.8215L116.956 78.838L116.963 78.8542L117.866 78.4227ZM115.302 74.0848L114.494 74.6729L114.5 74.682L114.507 74.6908L115.302 74.0848ZM112.345 70.3383L113.097 69.6798L112.137 68.5829L111.459 69.8732L112.345 70.3383ZM106.232 80.0002L105.449 79.3779L105.444 79.3842L105.439 79.3905L106.232 80.0002ZM99.725 87.2959L99.0278 86.5788L99.0179 86.5888L99.725 87.2959ZM93.4152 87.986L92.647 88.6262L92.6608 88.6427L92.6753 88.6587L93.4152 87.986ZM93.8096 81.479L94.5815 82.1148L94.5857 82.1096L93.8096 81.479ZM95.0912 79.9016L95.8674 80.5322L95.8688 80.5305L95.0912 79.9016ZM103.274 68.8595L104.118 69.3964L104.128 69.381L104.137 69.3652L103.274 68.8595ZM107.218 61.268L108.12 61.7002L108.123 61.693L107.218 61.268ZM111.654 51.3104L110.736 50.914L110.733 50.9208L111.654 51.3104ZM123.288 47.4654L123.702 46.5551L123.702 46.5551L123.288 47.4654ZM123.978 50.9161L124.934 51.2102L124.934 51.2102L123.978 50.9161ZM122.894 53.4794L122.013 53.0053L122.006 53.0187L121.999 53.0322L122.894 53.4794ZM122.105 62.7469L121.231 63.2325L121.241 63.2507L121.252 63.2684L122.105 62.7469ZM125.358 67.1835L126.154 66.5774L126.144 66.5644L126.134 66.5518L125.358 67.1835ZM130.091 74.282L129.208 74.7525L129.218 74.7703L129.228 74.7877L130.091 74.282ZM131.57 83.3523L130.576 83.2418L130.394 84.8808L131.931 84.2846L131.57 83.3523ZM142.908 73.3946L142.148 72.7439L142.138 72.7556L142.128 72.7676L142.908 73.3946ZM147.541 73.1975L146.677 73.7013L146.693 73.7272L146.709 73.7522L147.541 73.1975ZM146.457 82.5635L147.235 83.1913L147.241 83.1842L146.457 82.5635ZM136.992 90.9437L137.431 91.8421L137.439 91.8381L136.992 90.9437ZM125.95 93.3099L125.92 92.3103L125.57 92.3208L125.302 92.5479L125.95 93.3099ZM116.584 96.6619V95.6619C113.308 95.6619 110.945 94.9054 109.347 93.5365L108.697 94.2958L108.046 95.055C110.13 96.841 113.024 97.6619 116.584 97.6619V96.6619ZM108.697 94.2958L109.361 93.5484C107.752 92.1185 107.035 90.6001 107.035 88.9719H106.035H105.035C105.035 91.2873 106.092 93.3182 108.032 95.0432L108.697 94.2958ZM106.035 88.9719H107.035C107.035 87.538 107.547 86.3107 108.615 85.2424L107.908 84.5353L107.201 83.8282C105.772 85.2576 105.035 86.988 105.035 88.9719H106.035ZM107.908 84.5353L108.615 85.2424C109.615 84.2428 111.16 83.6621 113.429 83.6621V82.6621V81.6621C110.834 81.6621 108.699 82.3303 107.201 83.8282L107.908 84.5353ZM113.429 82.6621V83.6621C114.21 83.6621 115.136 83.7526 116.213 83.9427L116.387 82.9579L116.561 81.9731C115.403 81.7689 114.357 81.6621 113.429 81.6621V82.6621ZM116.387 82.9579L116.276 83.9518C117.459 84.0832 118.347 84.1818 118.938 84.2476L119.049 83.2537L119.159 82.2598C118.568 82.1941 117.68 82.0955 116.497 81.964L116.387 82.9579ZM119.049 83.2537L120.048 83.2152C119.977 81.373 119.551 79.6286 118.768 77.9913L117.866 78.4227L116.963 78.8542C117.626 80.2403 117.989 81.7166 118.049 83.2921L119.049 83.2537ZM117.866 78.4227L118.783 78.024C118.092 76.4348 117.195 74.9196 116.098 73.4787L115.302 74.0848L114.507 74.6908C115.512 76.0105 116.325 77.3873 116.949 78.8215L117.866 78.4227ZM115.302 74.0848L116.111 73.4966C115.046 72.0327 114.042 70.7593 113.097 69.6798L112.345 70.3383L111.592 70.9969C112.488 72.0207 113.455 73.2449 114.494 74.6729L115.302 74.0848ZM112.345 70.3383L111.459 69.8732C109.442 73.7129 107.437 76.8769 105.449 79.3779L106.232 80.0002L107.015 80.6224C109.102 77.9968 111.172 74.7195 113.23 70.8035L112.345 70.3383ZM106.232 80.0002L105.439 79.3905C103.497 81.9151 101.36 84.3112 99.0279 86.5789L99.725 87.2959L100.422 88.0129C102.822 85.6797 105.023 83.212 107.025 80.6099L106.232 80.0002ZM99.725 87.2959L99.0179 86.5888C97.9686 87.638 96.9605 88.0705 95.9786 88.0705V89.0705V90.0705C97.6257 90.0705 99.1152 89.3199 100.432 88.003L99.725 87.2959ZM95.9786 89.0705V88.0705C95.1845 88.0705 94.6073 87.8106 94.1552 87.3133L93.4152 87.986L92.6753 88.6587C93.5377 89.6073 94.6693 90.0705 95.9786 90.0705V89.0705ZM93.4152 87.986L94.1834 87.3458C93.6895 86.7531 93.4293 86.0325 93.4293 85.1269H92.4293H91.4293C91.4293 86.456 91.8264 87.6414 92.647 88.6262L93.4152 87.986ZM92.4293 85.1269H93.4293C93.4293 84.0682 93.7929 83.0724 94.5815 82.1148L93.8096 81.479L93.0376 80.8433C91.9859 82.1204 91.4293 83.5565 91.4293 85.1269H92.4293ZM93.8096 81.479L94.5857 82.1096L95.8674 80.5322L95.0912 79.9016L94.3151 79.271L93.0335 80.8485L93.8096 81.479ZM95.0912 79.9016L95.8688 80.5305C99.4939 76.0484 102.248 72.3344 104.118 69.3964L103.274 68.8595L102.431 68.3226C100.62 71.1686 97.9185 74.8159 94.3137 79.2727L95.0912 79.9016ZM103.274 68.8595L104.137 69.3652C105.274 67.4255 106.602 64.8675 108.12 61.7002L107.218 61.268L106.316 60.8359C104.81 63.9784 103.509 66.4813 102.412 68.3538L103.274 68.8595ZM107.218 61.268L108.123 61.693C109.64 58.4602 111.125 55.1292 112.575 51.7001L111.654 51.3104L110.733 50.9208C109.292 54.3272 107.819 57.6347 106.313 60.8431L107.218 61.268ZM111.654 51.3104L112.572 51.7069C113.115 50.4502 113.931 49.5397 115.025 48.9306C116.133 48.3132 117.588 47.9725 119.443 47.9725V46.9725V45.9725C117.355 45.9725 115.539 46.3547 114.052 47.1833C112.549 48.0202 111.442 49.2787 110.736 50.914L111.654 51.3104ZM119.443 46.9725V47.9725C121.281 47.9725 122.367 48.145 122.874 48.3758L123.288 47.4654L123.702 46.5551C122.764 46.1286 121.286 45.9725 119.443 45.9725V46.9725ZM123.288 47.4654L122.874 48.3758C123.11 48.4832 123.222 48.5923 123.277 48.6728C123.329 48.7474 123.373 48.8558 123.373 49.0429H124.373H125.373C125.373 48.507 125.236 47.9909 124.925 47.5397C124.619 47.0944 124.189 46.7763 123.702 46.5551L123.288 47.4654ZM124.373 49.0429H123.373C123.373 49.2743 123.284 49.7733 123.022 50.622L123.978 50.9161L124.934 51.2102C125.199 50.35 125.373 49.6002 125.373 49.0429H124.373ZM123.978 50.9161L123.022 50.622C122.78 51.4091 122.445 52.2034 122.013 53.0053L122.894 53.4794L123.774 53.9535C124.263 53.0465 124.65 52.132 124.934 51.2102L123.978 50.9161ZM122.894 53.4794L121.999 53.0322C120.784 55.4618 120.119 57.6284 120.119 59.4934H121.119H122.119C122.119 58.0722 122.637 56.2293 123.788 53.9266L122.894 53.4794ZM121.119 59.4934H120.119C120.119 60.7009 120.52 61.9537 121.231 63.2325L122.105 62.7469L122.979 62.2613C122.375 61.1739 122.119 60.2578 122.119 59.4934H121.119ZM122.105 62.7469L121.252 63.2684C122.008 64.5065 123.124 66.0249 124.583 67.8151L125.358 67.1835L126.134 66.5518C124.7 64.7928 123.648 63.3535 122.958 62.2255L122.105 62.7469ZM125.358 67.1835L124.563 67.7895C126.649 70.5279 128.192 72.8466 129.208 74.7525L130.091 74.282L130.973 73.8114C129.886 71.7737 128.274 69.3601 126.154 66.5774L125.358 67.1835ZM130.091 74.282L129.228 74.7877C130.252 76.5339 130.767 78.4614 130.767 80.5917H131.767H132.767C132.767 78.1212 132.165 75.8422 130.953 73.7762L130.091 74.282ZM131.767 80.5917H130.767C130.767 81.1938 130.706 82.0711 130.576 83.2418L131.57 83.3523L132.564 83.4627C132.696 82.2672 132.767 81.3042 132.767 80.5917H131.767ZM131.57 83.3523L131.931 84.2846C135.411 82.9354 139.328 79.4362 143.687 74.0217L142.908 73.3946L142.128 72.7676C137.811 78.1323 134.17 81.2715 131.208 82.4199L131.57 83.3523ZM142.908 73.3946L143.667 74.0454C144.313 73.2916 144.941 73.0144 145.569 73.0144V72.0144V71.0144C144.226 71.0144 143.079 71.6574 142.148 72.7439L142.908 73.3946ZM145.569 72.0144V73.0144C146.039 73.0144 146.382 73.1941 146.677 73.7013L147.541 73.1975L148.405 72.6936C147.781 71.6234 146.808 71.0144 145.569 71.0144V72.0144ZM147.541 73.1975L146.709 73.7522C147.086 74.3176 147.33 75.1826 147.33 76.4509H148.33H149.33C149.33 74.9587 149.048 73.6548 148.373 72.6428L147.541 73.1975ZM148.33 76.4509H147.33C147.33 78.7789 146.751 80.5813 145.673 81.9428L146.457 82.5635L147.241 83.1842C148.661 81.3909 149.33 79.1182 149.33 76.4509H148.33ZM146.457 82.5635L145.678 81.9358C142.438 85.9543 139.389 88.6272 136.545 90.0493L136.992 90.9437L137.439 91.8381C140.642 90.2368 143.903 87.3229 147.235 83.1913L146.457 82.5635ZM136.992 90.9437L136.553 90.0453C133.758 91.4115 130.227 92.1817 125.92 92.3103L125.95 93.3099L125.98 94.3094C130.48 94.1751 134.31 93.3678 137.431 91.8421L136.992 90.9437ZM125.95 93.3099L125.302 92.5479C122.863 94.6212 119.974 95.6619 116.584 95.6619V96.6619V97.6619C120.424 97.6619 123.779 96.468 126.598 94.0718L125.95 93.3099ZM186.263 73.1975L185.4 73.7013L185.415 73.7272L185.431 73.7522L186.263 73.1975ZM185.179 82.5635L184.422 81.9099L184.412 81.9216L184.402 81.9335L185.179 82.5635ZM175.911 91.1409L175.357 90.3088L175.357 90.3088L175.911 91.1409ZM144.56 57.423L145.557 57.4895L145.629 56.423H144.56V57.423ZM136.672 56.3385L135.932 57.0112L135.949 57.0288L135.965 57.0456L136.672 56.3385ZM145.743 47.3668V48.3668H146.6L146.731 47.5196L145.743 47.3668ZM150.869 27.5502L149.936 27.1912L149.936 27.1912L150.869 27.5502ZM159.151 13.2546L158.417 12.5752L158.41 12.5826L159.151 13.2546ZM176.207 11.5786L177.046 11.0344L177.046 11.0344L176.207 11.5786ZM165.757 47.3668L165.094 46.6178L163.117 48.3668H165.757V47.3668ZM156.588 57.423V56.423H155.627L155.588 57.3831L156.588 57.423ZM158.757 79.5072L157.888 80.0034L157.893 80.0111L157.897 80.0187L158.757 79.5072ZM173.94 81.0847L174.558 81.8702L174.558 81.8702L173.94 81.0847ZM181.63 73.3946L182.386 74.049L182.389 74.0454L181.63 73.3946ZM163.686 21.1418L162.792 20.6946L162.787 20.7044L163.686 21.1418ZM160.235 31.3952L159.266 31.1493L159.264 31.1596L160.235 31.3952ZM157.574 45.888L156.583 45.7534L156.227 48.374L158.228 46.6445L157.574 45.888ZM166.25 34.6487L165.344 34.2242L165.341 34.2305L166.25 34.6487ZM184.292 72.0144V73.0144C184.761 73.0144 185.104 73.1941 185.4 73.7013L186.263 73.1975L187.127 72.6936C186.503 71.6234 185.53 71.0144 184.292 71.0144V72.0144ZM186.263 73.1975L185.431 73.7522C185.808 74.3176 186.052 75.1826 186.052 76.4509H187.052H188.052C188.052 74.9587 187.77 73.6548 187.095 72.6428L186.263 73.1975ZM187.052 76.4509H186.052C186.052 78.9303 185.464 80.7038 184.422 81.9099L185.179 82.5635L185.936 83.2172C187.392 81.5312 188.052 79.2298 188.052 76.4509H187.052ZM185.179 82.5635L184.402 81.9335C181.632 85.3477 178.616 88.1358 175.357 90.3088L175.911 91.1409L176.466 91.9729C179.911 89.6765 183.073 86.7464 185.955 83.1936L185.179 82.5635ZM175.911 91.1409L175.357 90.3088C172.182 92.4255 168.533 93.493 164.376 93.493V94.493V95.493C168.896 95.493 172.937 94.3256 176.466 91.9729L175.911 91.1409ZM164.376 94.493V93.493C157.937 93.493 153.24 91.2471 150.107 86.8397C146.93 82.3697 145.264 75.5412 145.264 66.1976H144.264H143.264C143.264 75.7175 144.95 83.0367 148.477 87.9985C152.048 93.0229 157.407 95.493 164.376 95.493V94.493ZM144.264 66.1976H145.264C145.264 63.3283 145.362 60.4257 145.557 57.4895L144.56 57.423L143.562 57.3565C143.363 60.3358 143.264 63.2828 143.264 66.1976H144.264ZM144.56 57.423V56.423H140.715V57.423V58.423H144.56V57.423ZM140.715 57.423V56.423C138.79 56.423 137.803 56.055 137.38 55.6314L136.672 56.3385L135.965 57.0456C136.988 58.0681 138.695 58.423 140.715 58.423V57.423ZM136.672 56.3385L137.412 55.6659C136.999 55.2114 136.687 54.3611 136.687 52.8879H135.687H134.687C134.687 54.5696 135.031 56.0197 135.932 57.0112L136.672 56.3385ZM135.687 52.8879H136.687C136.687 51.1552 137.039 50.0408 137.575 49.3735C138.078 48.7479 138.863 48.3668 140.123 48.3668V47.3668V46.3668C138.425 46.3668 136.992 46.9059 136.016 48.1207C135.074 49.2937 134.687 50.9399 134.687 52.8879H135.687ZM140.123 47.3668V48.3668H145.743V47.3668V46.3668H140.123V47.3668ZM145.743 47.3668L146.731 47.5196C147.839 40.3504 149.531 33.8151 151.803 27.9092L150.869 27.5502L149.936 27.1912C147.607 33.2475 145.881 39.9234 144.754 47.2141L145.743 47.3668ZM150.869 27.5502L151.803 27.9092C154.073 22.0068 156.777 17.3592 159.892 13.9266L159.151 13.2546L158.41 12.5826C155.084 16.2485 152.267 21.1313 149.936 27.1912L150.869 27.5502ZM159.151 13.2546L159.885 13.934C163.04 10.5262 166.308 8.93074 169.7 8.93074V7.93074V6.93074C165.6 6.93074 161.835 8.8845 158.417 12.5752L159.151 13.2546ZM169.7 7.93074V8.93074C172.102 8.93074 173.964 9.95804 175.368 12.1228L176.207 11.5786L177.046 11.0344C175.295 8.33534 172.819 6.93074 169.7 6.93074V7.93074ZM176.207 11.5786L175.368 12.1228C176.815 14.3541 177.573 17.2081 177.573 20.7475H178.573H179.573C179.573 16.9254 178.754 13.6669 177.046 11.0344L176.207 11.5786ZM178.573 20.7475H177.573C177.573 30.6125 173.453 39.2237 165.094 46.6178L165.757 47.3668L166.419 48.1158C175.15 40.3928 179.573 31.2578 179.573 20.7475H178.573ZM165.757 47.3668V48.3668H176.799V47.3668V46.3668H165.757V47.3668ZM176.799 47.3668V48.3668C177.742 48.3668 178.174 48.579 178.359 48.7641L179.066 48.057L179.773 47.3499C179.038 46.6148 177.959 46.3668 176.799 46.3668V47.3668ZM179.066 48.057L178.359 48.7641C178.52 48.9253 178.756 49.4208 178.756 50.6203H179.756H180.756C180.756 49.3222 180.532 48.1088 179.773 47.3499L179.066 48.057ZM179.756 50.6203H178.756C178.756 52.5573 177.994 53.9259 176.45 54.8689C174.825 55.8609 172.26 56.423 168.616 56.423V57.423V58.423C172.398 58.423 175.403 57.8514 177.492 56.5758C179.662 55.2513 180.756 53.2184 180.756 50.6203H179.756ZM168.616 57.423V56.423H156.588V57.423V58.423H168.616V57.423ZM156.588 57.423L155.588 57.3831C155.457 60.6741 155.39 63.2529 155.39 65.1131H156.39H157.39C157.39 63.2925 157.456 60.7446 157.587 57.463L156.588 57.423ZM156.39 65.1131H155.39C155.39 71.9653 156.171 76.9972 157.888 80.0034L158.757 79.5072L159.625 79.0111C158.188 76.4962 157.39 71.932 157.39 65.1131H156.39ZM158.757 79.5072L157.897 80.0187C159.739 83.1119 162.647 84.648 166.447 84.648V83.648V82.648C163.28 82.648 161.061 81.4237 159.616 78.9958L158.757 79.5072ZM166.447 83.648V84.648C169.492 84.648 172.209 83.7215 174.558 81.8702L173.94 81.0847L173.321 80.2992C171.332 81.8656 169.054 82.648 166.447 82.648V83.648ZM173.94 81.0847L174.558 81.8702C176.799 80.1052 179.409 77.4886 182.386 74.049L181.63 73.3946L180.873 72.7403C177.935 76.1362 175.419 78.6463 173.321 80.2992L173.94 81.0847ZM181.63 73.3946L182.389 74.0454C183.035 73.2916 183.663 73.0144 184.292 73.0144V72.0144V71.0144C182.948 71.0144 181.802 71.6574 180.87 72.7439L181.63 73.3946ZM167.038 17.3954V16.3954C166.114 16.3954 165.337 16.9703 164.716 17.6652C164.071 18.3852 163.433 19.4116 162.792 20.6946L163.686 21.1418L164.581 21.589C165.188 20.3745 165.733 19.5276 166.206 18.9988C166.702 18.445 166.976 18.3954 167.038 18.3954V17.3954ZM163.686 21.1418L162.787 20.7044C161.561 23.2249 160.391 26.7176 159.266 31.1493L160.235 31.3952L161.205 31.6412C162.315 27.2655 163.445 23.9225 164.585 21.5793L163.686 21.1418ZM160.235 31.3952L159.264 31.1596C158.203 35.5368 157.309 40.4021 156.583 45.7534L157.574 45.888L158.564 46.0225C159.284 40.7261 160.165 35.9296 161.207 31.6308L160.235 31.3952ZM157.574 45.888L158.228 46.6445C162.2 43.2107 165.185 39.3525 167.158 35.0668L166.25 34.6487L165.341 34.2305C163.502 38.2264 160.703 41.8611 156.92 45.1314L157.574 45.888ZM166.25 34.6487L167.155 35.0731C169.168 30.7789 170.207 26.8195 170.207 23.2122H169.207H168.207C168.207 26.4405 167.275 30.1054 165.344 34.2243L166.25 34.6487ZM169.207 23.2122H170.207C170.207 21.2395 170.027 19.6404 169.602 18.5002C169.387 17.9237 169.086 17.3999 168.654 17.0134C168.2 16.6083 167.647 16.3954 167.038 16.3954V17.3954V18.3954C167.152 18.3954 167.232 18.4249 167.321 18.5045C167.431 18.6027 167.581 18.8061 167.728 19.199C168.026 19.9977 168.207 21.3071 168.207 23.2122H169.207ZM236.996 73.1975L236.132 73.7013L236.147 73.7272L236.164 73.7522L236.996 73.1975ZM235.911 82.5635L235.154 81.9099L235.146 81.9196L235.138 81.9295L235.911 82.5635ZM227.038 91.0423L227.619 91.8561L227.63 91.8482L227.038 91.0423ZM206.038 85.7184L206.95 85.3085L206.276 83.8082L205.255 85.0973L206.038 85.7184ZM198.743 92.7183L198.252 91.8467L198.241 91.8535L198.743 92.7183ZM181.588 90.0564L180.825 90.7031L180.833 90.712L180.841 90.7208L181.588 90.0564ZM181.095 63.7328L181.989 64.18L181.992 64.1748L181.095 63.7328ZM190.264 52.6907L190.853 53.4988L190.855 53.4971L190.264 52.6907ZM203.475 47.564L203.582 48.5582L204.391 48.4708L204.47 47.6615L203.475 47.564ZM210.573 14.9306L209.642 14.5662L209.641 14.5698L210.573 14.9306ZM231.475 5.17022L230.662 5.75342L230.667 5.76021L230.672 5.76692L231.475 5.17022ZM228.911 42.6345L227.972 42.2902L227.972 42.2902L228.911 42.6345ZM214.419 73.0003L213.554 72.4971L213.4 72.7626L213.421 73.0691L214.419 73.0003ZM216.095 81.1833L215.207 81.6446L215.214 81.6584L215.222 81.6719L216.095 81.1833ZM224.968 81.2819L224.317 80.5226L224.317 80.5226L224.968 81.2819ZM232.362 73.3946L231.603 72.7438L231.596 72.7518L232.362 73.3946ZM219.644 17.6912L220.606 17.964L220.607 17.9603L219.644 17.6912ZM216.39 35.043L215.398 34.9157L215.397 34.9246L216.39 35.043ZM214.517 57.5216L213.518 57.4713L215.426 57.9388L214.517 57.5216ZM224.869 13.0574L223.908 13.3322L223.914 13.353L223.92 13.3737L224.869 13.0574ZM198.743 83.0565L199.362 83.8414L199.375 83.8316L199.387 83.8214L198.743 83.0565ZM203.475 77.3383L204.298 77.9064L204.534 77.5646L204.458 77.1562L203.475 77.3383ZM202.686 57.7188L203.686 57.7558L203.738 56.3471L202.391 56.7634L202.686 57.7188ZM193.616 65.0145L192.777 64.47L192.775 64.4737L193.616 65.0145ZM235.024 72.0144V73.0144C235.494 73.0144 235.836 73.1941 236.132 73.7013L236.996 73.1975L237.859 72.6936C237.235 71.6234 236.263 71.0144 235.024 71.0144V72.0144ZM236.996 73.1975L236.164 73.7522C236.541 74.3176 236.784 75.1826 236.784 76.4509H237.784H238.784C238.784 74.9587 238.502 73.6548 237.828 72.6428L236.996 73.1975ZM237.784 76.4509H236.784C236.784 78.9303 236.196 80.7038 235.154 81.9099L235.911 82.5635L236.668 83.2172C238.124 81.5312 238.784 79.2298 238.784 76.4509H237.784ZM235.911 82.5635L235.138 81.9295C232.493 85.1553 229.595 87.9228 226.446 90.2364L227.038 91.0423L227.63 91.8482C230.922 89.4295 233.94 86.5445 236.684 83.1976L235.911 82.5635ZM227.038 91.0423L226.457 90.2286C223.362 92.4389 220.374 93.493 217.475 93.493V94.493V95.493C220.886 95.493 224.273 94.2465 227.619 91.856L227.038 91.0423ZM217.475 94.493V93.493C215.188 93.493 213.202 92.8288 211.478 91.5059C209.74 90.1723 208.219 88.1309 206.95 85.3085L206.038 85.7184L205.126 86.1284C206.487 89.1556 208.187 91.5015 210.261 93.0927C212.349 94.6947 214.766 95.493 217.475 95.493V94.493ZM206.038 85.7184L205.255 85.0973C202.518 88.5502 200.184 90.7603 198.252 91.8468L198.743 92.7183L199.233 93.5899C201.508 92.3102 204.037 89.8537 206.822 86.3395L206.038 85.7184ZM198.743 92.7183L198.241 91.8535C196.38 92.9339 194.16 93.493 191.546 93.493V94.493V95.493C194.452 95.493 197.03 94.8689 199.245 93.5831L198.743 92.7183ZM191.546 94.493V93.493C187.818 93.493 184.772 92.1331 182.335 89.392L181.588 90.0564L180.841 90.7208C183.662 93.8951 187.255 95.493 191.546 95.493V94.493ZM181.588 90.0564L182.351 89.4097C179.971 86.603 178.743 82.9373 178.743 78.3242H177.743H176.743C176.743 83.3071 178.078 87.463 180.825 90.7031L181.588 90.0564ZM177.743 78.3242H178.743C178.743 73.2129 179.828 68.5033 181.989 64.18L181.095 63.7328L180.201 63.2856C177.893 67.9011 176.743 72.9191 176.743 78.3242H177.743ZM181.095 63.7328L181.992 64.1748C184.159 59.7768 187.113 56.2246 190.853 53.4988L190.264 52.6907L189.675 51.8826C185.659 54.8093 182.5 58.6185 180.198 63.2908L181.095 63.7328ZM190.264 52.6907L190.855 53.4971C194.657 50.7093 198.894 49.0651 203.582 48.5582L203.475 47.564L203.368 46.5698C198.329 47.1145 193.758 48.8882 189.673 51.8843L190.264 52.6907ZM203.475 47.564L204.47 47.6615C205.713 34.9732 208.064 24.1891 211.506 15.2915L210.573 14.9306L209.641 14.5698C206.116 23.6813 203.735 34.6528 202.48 47.4665L203.475 47.564ZM210.573 14.9306L211.505 15.295C215.02 6.31133 219.414 2.3252 224.475 2.3252V1.3252V0.325197C218.099 0.325197 213.225 5.40936 209.642 14.5662L210.573 14.9306ZM224.475 1.3252V2.3252C226.938 2.3252 228.984 3.41641 230.662 5.75342L231.475 5.17022L232.287 4.58701C230.284 1.79734 227.664 0.325197 224.475 0.325197V1.3252ZM231.475 5.17022L230.672 5.76692C232.392 8.07969 233.334 11.7028 233.334 16.8039H234.334H235.334C235.334 11.52 234.369 7.38743 232.277 4.57352L231.475 5.17022ZM234.334 16.8039H233.334C233.334 24.0093 231.563 32.4984 227.972 42.2902L228.911 42.6345L229.85 42.9788C233.49 33.0526 235.334 24.3212 235.334 16.8039H234.334ZM228.911 42.6345L227.972 42.2902C224.38 52.087 219.576 62.1558 213.554 72.4971L214.419 73.0003L215.283 73.5035C221.355 63.075 226.212 52.9 229.85 42.9788L228.911 42.6345ZM214.419 73.0003L213.421 73.0691C213.685 76.9033 214.252 79.8076 215.207 81.6446L216.095 81.1833L216.982 80.7219C216.228 79.2726 215.678 76.7215 215.416 72.9315L214.419 73.0003ZM216.095 81.1833L215.222 81.6719C216.246 83.5002 217.675 84.648 219.545 84.648V83.648V82.648C218.655 82.648 217.784 82.1527 216.967 80.6947L216.095 81.1833ZM219.545 83.648V84.648C221.633 84.648 223.663 83.717 225.618 82.0411L224.968 81.2819L224.317 80.5226C222.591 82.0016 221.006 82.648 219.545 82.648V83.648ZM224.968 81.2819L225.618 82.0411C227.523 80.4084 230.031 77.7278 233.128 74.0375L232.362 73.3946L231.596 72.7518C228.515 76.4229 226.093 79.0004 224.317 80.5226L224.968 81.2819ZM232.362 73.3946L233.121 74.0454C233.767 73.2916 234.396 73.0144 235.024 73.0144V72.0144V71.0144C233.68 71.0144 232.534 71.6574 231.603 72.7439L232.362 73.3946ZM223.39 10.987V9.98704C222.758 9.98704 222.219 10.2743 221.787 10.6608C221.361 11.0421 220.985 11.5654 220.644 12.1752C219.962 13.3962 219.312 15.1621 218.681 17.4221L219.644 17.6912L220.607 17.9603C221.224 15.7509 221.823 14.1647 222.39 13.1509C222.674 12.6434 222.922 12.3287 223.12 12.1513C223.216 12.0656 223.287 12.024 223.33 12.0046C223.37 11.9867 223.388 11.987 223.39 11.987V10.987ZM219.644 17.6912L218.682 17.4183C217.414 21.8888 216.322 27.7269 215.398 34.9157L216.39 35.043L217.382 35.1704C218.299 28.0308 219.376 22.301 220.606 17.964L219.644 17.6912ZM216.39 35.043L215.397 34.9246C214.54 42.1133 213.914 49.6289 213.518 57.4713L214.517 57.5216L215.516 57.572C215.909 49.7713 216.532 42.3013 217.383 35.1615L216.39 35.043ZM214.517 57.5216L215.426 57.9388C222.806 41.8601 226.559 28.8195 226.559 18.8743H225.559H224.559C224.559 28.3842 220.951 41.1084 213.608 57.1045L214.517 57.5216ZM225.559 18.8743H226.559C226.559 16.3345 226.328 14.271 225.818 12.7412L224.869 13.0574L223.92 13.3737C224.331 14.6044 224.559 16.4187 224.559 18.8743H225.559ZM224.869 13.0574L225.831 12.7827C225.621 12.0479 225.361 11.404 225.017 10.9234C224.67 10.4369 224.134 9.98704 223.39 9.98704V10.987V11.987C223.238 11.987 223.244 11.8823 223.39 12.0859C223.54 12.2954 223.723 12.6867 223.908 13.3322L224.869 13.0574ZM194.996 84.5353V85.5353C196.525 85.5353 197.986 84.9278 199.362 83.8414L198.743 83.0565L198.123 82.2716C197.002 83.1569 195.965 83.5353 194.996 83.5353V84.5353ZM198.743 83.0565L199.387 83.8214C200.743 82.6793 202.383 80.6802 204.298 77.9064L203.475 77.3383L202.652 76.7701C200.755 79.5174 199.24 81.3304 198.099 82.2916L198.743 83.0565ZM203.475 77.3383L204.458 77.1562C203.814 73.6784 203.489 69.7642 203.489 65.4088H202.489H201.489C201.489 69.8608 201.821 73.8997 202.492 77.5203L203.475 77.3383ZM202.489 65.4088H203.489C203.489 63.8514 203.554 61.3041 203.686 57.7558L202.686 57.7188L201.687 57.6818C201.555 61.232 201.489 63.8114 201.489 65.4088H202.489ZM202.686 57.7188L202.391 56.7634C198.513 57.9619 195.312 60.5643 192.777 64.47L193.616 65.0145L194.455 65.5589C196.783 61.9718 199.629 59.7104 202.982 58.6742L202.686 57.7188ZM193.616 65.0145L192.775 64.4737C190.301 68.3218 189.067 72.6187 189.067 77.3383H190.067H191.067C191.067 72.9875 192.199 69.0685 194.457 65.5552L193.616 65.0145ZM190.067 77.3383H189.067C189.067 79.8203 189.486 81.8587 190.474 83.3012C191.509 84.8117 193.073 85.5353 194.996 85.5353V84.5353V83.5353C193.633 83.5353 192.733 83.0595 192.124 82.171C191.469 81.2144 191.067 79.6542 191.067 77.3383H190.067ZM282.017 65.0145L281.136 65.4886L281.136 65.4886L282.017 65.0145ZM279.848 73.8876L279.551 72.9325L279.534 72.9378L279.517 72.9437L279.848 73.8876ZM266.834 76.2538L266.792 75.2546L266.027 75.2865L265.858 76.0331L266.834 76.2538ZM259.44 89.5634L260.106 90.3094L260.113 90.3028L259.44 89.5634ZM236.764 91.6338L236.196 92.4568L236.205 92.4629L236.764 91.6338ZM231.144 60.4793L232.042 60.9205L232.045 60.9145L231.144 60.4793ZM239.031 51.3104L239.575 52.1501L239.586 52.1425L239.031 51.3104ZM262.2 53.1836L261.445 53.8391L261.451 53.8467L261.458 53.8542L262.2 53.1836ZM267.623 65.9018L266.628 66.0051L266.727 66.961L267.686 66.8998L267.623 65.9018ZM278.665 63.93L278.422 62.9598L278.412 62.9625L278.665 63.93ZM253.13 81.479L252.395 80.8008L252.388 80.8085L252.381 80.8165L253.13 81.479ZM256.285 74.0848L257.272 74.2459L257.375 73.6152L256.846 73.2569L256.285 74.0848ZM251.552 68.6623L250.648 69.0881L250.653 69.0989L250.658 69.1095L251.552 68.6623ZM250.271 58.4089L251.254 58.5932L251.476 57.4089H250.271V58.4089ZM243.172 62.2539L242.35 61.6847L242.347 61.6893L243.172 62.2539ZM242.679 81.1833L241.869 81.7698L241.876 81.7788L241.883 81.7877L242.679 81.1833ZM280.045 63.7328V64.7328C280.474 64.7328 280.822 64.9045 281.136 65.4886L282.017 65.0145L282.897 64.5404C282.292 63.4155 281.324 62.7328 280.045 62.7328V63.7328ZM282.017 65.0145L281.136 65.4886C281.495 66.1548 281.707 67.0628 281.707 68.268H282.707H283.707C283.707 66.844 283.459 65.583 282.897 64.5404L282.017 65.0145ZM282.707 68.268H281.707C281.707 69.7602 281.479 70.8422 281.101 71.5856C280.739 72.2958 280.232 72.7214 279.551 72.9325L279.848 73.8876L280.144 74.8427C281.37 74.4622 282.292 73.6555 282.883 72.4925C283.458 71.3626 283.707 69.9306 283.707 68.268H282.707ZM279.848 73.8876L279.517 72.9437C275.678 74.2874 271.439 75.061 266.792 75.2546L266.834 76.2538L266.875 77.2529C271.693 77.0522 276.13 76.2483 280.178 74.8315L279.848 73.8876ZM266.834 76.2538L265.858 76.0331C264.648 81.3828 262.275 85.6283 258.766 88.8241L259.44 89.5634L260.113 90.3028C263.965 86.7944 266.522 82.1668 267.809 76.4744L266.834 76.2538ZM259.44 89.5634L258.774 88.8175C255.265 91.9505 251.325 93.493 246.919 93.493V94.493V95.493C251.846 95.493 256.253 93.7491 260.106 90.3094L259.44 89.5634ZM246.919 94.493V93.493C243.142 93.493 239.959 92.5827 237.323 90.8048L236.764 91.6338L236.205 92.4629C239.221 94.4971 242.808 95.493 246.919 95.493V94.493ZM236.764 91.6338L237.332 90.8109C234.725 89.0108 232.737 86.6229 231.363 83.6257L230.454 84.0424L229.545 84.459C231.063 87.7716 233.282 90.4447 236.196 92.4567L236.764 91.6338ZM230.454 84.0424L231.363 83.6257C229.981 80.6094 229.285 77.3348 229.285 73.789H228.285H227.285C227.285 77.6046 228.035 81.1656 229.545 84.459L230.454 84.0424ZM228.285 73.789H229.285C229.285 68.9229 230.213 64.6411 232.042 60.9204L231.144 60.4793L230.247 60.0382C228.263 64.0733 227.285 68.6647 227.285 73.789H228.285ZM231.144 60.4793L232.045 60.9145C233.879 57.1193 236.391 54.2099 239.575 52.15L239.031 51.3104L238.488 50.4709C234.968 52.7489 232.222 55.9521 230.244 60.0442L231.144 60.4793ZM239.031 51.3104L239.586 52.1425C242.772 50.0186 246.292 48.9584 250.172 48.9584V47.9584V46.9584C245.902 46.9584 241.995 48.1328 238.477 50.4784L239.031 51.3104ZM250.172 47.9584V48.9584C254.905 48.9584 258.628 50.5941 261.445 53.8391L262.2 53.1836L262.955 52.5282C259.725 48.8061 255.43 46.9584 250.172 46.9584V47.9584ZM262.2 53.1836L261.458 53.8542C264.39 57.0981 266.122 61.1321 266.628 66.0051L267.623 65.9018L268.617 65.7984C268.072 60.5496 266.188 56.1048 262.942 52.5131L262.2 53.1836ZM267.623 65.9018L267.686 66.8998C270.86 66.6972 274.607 66.0248 278.918 64.8974L278.665 63.93L278.412 62.9625C274.178 64.0699 270.563 64.712 267.559 64.9038L267.623 65.9018ZM278.665 63.93L278.907 64.9001C279.381 64.7817 279.756 64.7328 280.045 64.7328V63.7328V62.7328C279.545 62.7328 279 62.8154 278.422 62.9598L278.665 63.93ZM247.707 84.0424V85.0424C250.123 85.0424 252.195 84.0446 253.879 82.1416L253.13 81.479L252.381 80.8165C251.041 82.3313 249.498 83.0424 247.707 83.0424V84.0424ZM253.13 81.479L253.865 82.1573C255.618 80.2573 256.726 77.5849 257.272 74.2459L256.285 74.0848L255.298 73.9236C254.791 77.0258 253.796 79.283 252.395 80.8008L253.13 81.479ZM256.285 74.0848L256.846 73.2569C254.952 71.9743 253.489 70.2988 252.447 68.2151L251.552 68.6623L250.658 69.1095C251.851 71.4952 253.542 73.4347 255.724 74.9127L256.285 74.0848ZM251.552 68.6623L252.457 68.2365C251.469 66.1365 250.975 63.9159 250.975 61.5638H249.975H248.975C248.975 64.2069 249.533 66.7187 250.648 69.0881L251.552 68.6623ZM249.975 61.5638H250.975C250.975 60.5751 251.068 59.5851 251.254 58.5932L250.271 58.4089L249.288 58.2246C249.079 59.336 248.975 60.4493 248.975 61.5638H249.975ZM250.271 58.4089V57.4089H249.778V58.4089V59.4089H250.271V58.4089ZM249.778 58.4089V57.4089C246.756 57.4089 244.272 58.909 242.35 61.6847L243.172 62.2539L243.994 62.8232C245.622 60.4722 247.541 59.4089 249.778 59.4089V58.4089ZM243.172 62.2539L242.347 61.6893C240.479 64.4191 239.609 68.1974 239.609 72.9017H240.609H241.609C241.609 68.4042 242.447 65.0841 243.998 62.8186L243.172 62.2539ZM240.609 72.9017H239.609C239.609 76.6214 240.315 79.6237 241.869 81.7698L242.679 81.1833L243.489 80.5968C242.283 78.9307 241.609 76.4119 241.609 72.9017H240.609ZM242.679 81.1833L241.883 81.7877C243.464 83.8727 245.41 85.0424 247.707 85.0424V84.0424V83.0424C246.193 83.0424 244.786 82.306 243.476 80.5789L242.679 81.1833ZM280.949 39.6768L280.26 40.4009L280.269 40.4098L280.278 40.4183L280.949 39.6768ZM281.541 28.5361L282.189 29.2973L282.192 29.2954L281.541 28.5361ZM293.963 39.2824L294.626 40.0314L294.634 40.0244L294.641 40.0172L293.963 39.2824ZM277.006 89.9578L276.16 90.4911L276.164 90.4976L276.168 90.5041L277.006 89.9578ZM275.231 66.5919L274.245 66.4253L274.243 66.4367L275.231 66.5919ZM278.189 53.578L279.148 53.8611L279.151 53.8488L278.189 53.578ZM288.442 62.8455L289.419 63.0587L289.421 63.0499L288.442 62.8455ZM293.963 81.1833L293.284 80.4495L293.284 80.4495L293.963 81.1833ZM301.062 73.3946L300.302 72.7438L300.293 72.7545L301.062 73.3946ZM305.695 73.1975L304.832 73.7013L304.847 73.7272L304.863 73.7522L305.695 73.1975ZM304.611 82.5635L303.854 81.9099L303.845 81.92L303.837 81.9303L304.611 82.5635ZM287.16 41.55V40.55C284.531 40.55 282.745 39.953 281.62 38.9353L280.949 39.6768L280.278 40.4183C281.914 41.8982 284.269 42.55 287.16 42.55V41.55ZM280.949 39.6768L281.639 38.9527C280.497 37.8651 279.879 36.3421 279.879 34.2543H278.879H277.879C277.879 36.7675 278.641 38.8594 280.26 40.4009L280.949 39.6768ZM278.879 34.2543H279.879C279.879 32.2514 280.634 30.622 282.189 29.2973L281.541 28.5361L280.892 27.7749C278.898 29.4736 277.879 31.6564 277.879 34.2543H278.879ZM281.541 28.5361L282.192 29.2954C283.83 27.8909 285.859 27.1699 288.343 27.1699V26.1699V25.1699C285.439 25.1699 282.932 26.0264 280.89 27.7768L281.541 28.5361ZM288.343 26.1699V27.1699C290.613 27.1699 292.349 27.7198 293.643 28.7321L294.259 27.9446L294.875 27.1571C293.145 25.8031 290.938 25.1699 288.343 25.1699V26.1699ZM294.259 27.9446L293.643 28.7321C294.878 29.6993 295.526 31.0658 295.526 32.9727H296.526H297.526C297.526 30.5415 296.663 28.556 294.875 27.1571L294.259 27.9446ZM296.526 32.9727H295.526C295.526 35.3628 294.761 37.1851 293.285 38.5476L293.963 39.2824L294.641 40.0172C296.583 38.2248 297.526 35.8406 297.526 32.9727H296.526ZM293.963 39.2824L293.301 38.5334C291.815 39.8473 289.803 40.55 287.16 40.55V41.55V42.55C290.17 42.55 292.693 41.741 294.626 40.0314L293.963 39.2824ZM286.372 94.493V93.493C282.365 93.493 279.594 92.0966 277.843 89.4115L277.006 89.9578L276.168 90.5041C278.36 93.8659 281.833 95.493 286.372 95.493V94.493ZM277.006 89.9578L277.852 89.4245C276.079 86.6123 275.146 82.8082 275.146 77.9298H274.146H273.146C273.146 83.0419 274.12 87.2565 276.16 90.4911L277.006 89.9578ZM274.146 77.9298H275.146C275.146 75.0448 275.5 71.3223 276.219 66.7472L275.231 66.5919L274.243 66.4367C273.516 71.0633 273.146 74.8994 273.146 77.9298H274.146ZM275.231 66.5919L276.217 66.7586C277 62.1262 277.977 57.8275 279.148 53.861L278.189 53.578L277.23 53.295C276.034 57.3472 275.039 61.7244 274.245 66.4253L275.231 66.5919ZM278.189 53.578L279.151 53.8488C279.723 51.8158 280.438 50.6141 281.18 50.0209L280.555 49.24L279.93 48.4592C278.7 49.4434 277.837 51.1337 277.226 53.3073L278.189 53.578ZM280.555 49.24L281.18 50.0209C281.9 49.4447 283.198 49.057 285.287 49.057V48.057V47.057C283.039 47.057 281.182 47.4579 279.93 48.4592L280.555 49.24ZM285.287 48.057V49.057C286.884 49.057 287.906 49.3288 288.504 49.727C289.029 50.0776 289.315 50.583 289.315 51.409H290.315H291.315C291.315 50.0004 290.763 48.8297 289.613 48.0629C288.534 47.3438 287.043 47.057 285.287 47.057V48.057ZM290.315 51.409H289.315C289.315 52.9268 288.719 56.6268 287.463 62.6411L288.442 62.8455L289.421 63.0499C290.663 57.1019 291.315 53.1776 291.315 51.409H290.315ZM288.442 62.8455L287.465 62.6323C285.891 69.8472 285.076 74.8473 285.076 77.5354H286.076H287.076C287.076 75.0969 287.838 70.3037 289.419 63.0587L288.442 62.8455ZM286.076 77.5354H285.076C285.076 79.5705 285.343 81.2635 285.97 82.5178L286.865 82.0706L287.759 81.6234C287.335 80.7744 287.076 79.444 287.076 77.5354H286.076ZM286.865 82.0706L285.97 82.5178C286.307 83.1907 286.784 83.74 287.415 84.114C288.042 84.4858 288.761 84.648 289.527 84.648V83.648V82.648C289.044 82.648 288.694 82.5473 288.434 82.3934C288.178 82.2416 287.948 82.0021 287.759 81.6234L286.865 82.0706ZM289.527 83.648V84.648C291.12 84.648 292.847 83.5796 294.643 81.917L293.963 81.1833L293.284 80.4495C291.53 82.0733 290.299 82.648 289.527 82.648V83.648ZM293.963 81.1833L294.643 81.917C296.465 80.2291 298.865 77.5932 301.83 74.0348L301.062 73.3946L300.293 72.7545C297.343 76.2946 295.01 78.8511 293.284 80.4495L293.963 81.1833ZM301.062 73.3946L301.821 74.0454C302.467 73.2916 303.095 73.0144 303.724 73.0144V72.0144V71.0144C302.38 71.0144 301.234 71.6574 300.302 72.7439L301.062 73.3946ZM303.724 72.0144V73.0144C304.193 73.0144 304.536 73.1941 304.832 73.7013L305.695 73.1975L306.559 72.6936C305.935 71.6234 304.962 71.0144 303.724 71.0144V72.0144ZM305.695 73.1975L304.863 73.7522C305.24 74.3176 305.484 75.1826 305.484 76.4509H306.484H307.484C307.484 74.9587 307.202 73.6548 306.527 72.6428L305.695 73.1975ZM306.484 76.4509H305.484C305.484 78.9303 304.896 80.7038 303.854 81.9099L304.611 82.5635L305.368 83.2172C306.824 81.5312 307.484 79.2298 307.484 76.4509H306.484ZM304.611 82.5635L303.837 81.9303C297.374 89.8292 291.552 93.493 286.372 93.493V94.493V95.493C292.496 95.493 298.834 91.2038 305.385 83.1968L304.611 82.5635ZM314.775 57.423V56.423H313.814L313.776 57.3831L314.775 57.423ZM315.268 76.2538L314.282 76.4221L314.284 76.436L314.287 76.4499L315.268 76.2538ZM317.733 81.972L317.006 82.6586L317.025 82.6794L317.046 82.699L317.733 81.972ZM326.31 82.6621L325.896 81.7518L325.896 81.7518L326.31 82.6621ZM330.254 80.0988L330.918 80.8462L330.926 80.8387L330.254 80.0988ZM334.296 80.4931L333.401 80.9404L333.421 80.9797L333.444 81.0172L334.296 80.4931ZM334.296 87.2959L333.382 86.8897L333.372 86.9114L333.364 86.9334L334.296 87.2959ZM332.127 90.2536L331.502 89.4727L331.496 89.4778L331.489 89.4829L332.127 90.2536ZM306.789 86.7043L305.913 87.1862L305.915 87.1909L306.789 86.7043ZM302.747 57.423L303.745 57.4895L303.816 56.423H302.747V57.423ZM294.86 56.3385L294.12 57.0112L294.136 57.0288L294.153 57.0456L294.86 56.3385ZM303.93 47.3668V48.3668H304.787L304.918 47.5196L303.93 47.3668ZM309.057 27.5502L308.123 27.1912L308.123 27.1912L309.057 27.5502ZM317.338 13.2546L316.604 12.5752L316.598 12.5826L317.338 13.2546ZM334.394 11.5786L335.233 11.0344L335.233 11.0344L334.394 11.5786ZM323.944 47.3668L323.281 46.6178L321.304 48.3668H323.944V47.3668ZM321.873 21.1418L320.979 20.6946L320.974 20.7044L321.873 21.1418ZM318.423 31.3952L317.453 31.1493L317.451 31.1596L318.423 31.3952ZM315.761 45.888L314.77 45.7534L314.414 48.374L316.415 46.6445L315.761 45.888ZM324.437 34.6487L323.531 34.2242L323.528 34.2305L324.437 34.6487ZM314.775 57.423L313.776 57.3831C313.644 60.6741 313.578 63.2529 313.578 65.1131H314.578H315.578C315.578 63.2925 315.643 60.7446 315.774 57.463L314.775 57.423ZM314.578 65.1131H313.578C313.578 69.8674 313.808 73.6457 314.282 76.4221L315.268 76.2538L316.254 76.0855C315.807 73.4722 315.578 69.8234 315.578 65.1131H314.578ZM315.268 76.2538L314.287 76.4499C314.828 79.156 315.701 81.277 317.006 82.6586L317.733 81.972L318.46 81.2854C317.53 80.3008 316.759 78.6096 316.248 76.0576L315.268 76.2538ZM317.733 81.972L317.046 82.699C318.458 84.033 320.338 84.648 322.563 84.648V83.648V82.648C320.714 82.648 319.373 82.1457 318.419 81.245L317.733 81.972ZM322.563 83.648V84.648C323.812 84.648 325.208 84.2615 326.724 83.5725L326.31 82.6621L325.896 81.7518C324.52 82.3773 323.418 82.648 322.563 82.648V83.648ZM326.31 82.6621L326.724 83.5725C328.261 82.8739 329.66 81.9646 330.918 80.8462L330.254 80.0988L329.589 79.3514C328.481 80.3362 327.251 81.1358 325.896 81.7518L326.31 82.6621ZM330.254 80.0988L330.926 80.8387C331.531 80.2892 332.025 80.1129 332.423 80.1129V79.1129V78.1129C331.374 78.1129 330.422 78.5938 329.581 79.3588L330.254 80.0988ZM332.423 79.1129V80.1129C332.713 80.1129 333.05 80.2374 333.401 80.9404L334.296 80.4931L335.19 80.0459C334.621 78.9086 333.709 78.1129 332.423 78.1129V79.1129ZM334.296 80.4931L333.444 81.0172C333.852 81.6797 334.084 82.5392 334.084 83.648H335.084H336.084C336.084 82.2592 335.791 81.0155 335.147 79.969L334.296 80.4931ZM335.084 83.648H334.084C334.084 84.7518 333.853 85.8297 333.382 86.8897L334.296 87.2959L335.21 87.702C335.79 86.3959 336.084 85.0419 336.084 83.648H335.084ZM334.296 87.2959L333.364 86.9334C332.967 87.9533 332.35 88.7946 331.502 89.4727L332.127 90.2536L332.751 91.0344C333.876 90.1351 334.704 89.0046 335.228 87.6583L334.296 87.2959ZM332.127 90.2536L331.489 89.4829C328.247 92.1645 324.593 93.493 320.493 93.493V94.493V95.493C325.069 95.493 329.171 93.9951 332.764 91.0242L332.127 90.2536ZM320.493 94.493V93.493C317.512 93.493 314.985 92.8741 312.878 91.6764C310.773 90.4802 309.032 88.6755 307.663 86.2177L306.789 86.7043L305.915 87.1909C307.439 89.9256 309.427 92.0152 311.89 93.4152C314.351 94.8137 317.231 95.493 320.493 95.493V94.493ZM306.789 86.7043L307.665 86.2224C304.881 81.1594 303.451 74.5061 303.451 66.1976H302.451H301.451C301.451 74.715 302.914 81.733 305.913 87.1862L306.789 86.7043ZM302.451 66.1976H303.451C303.451 63.3283 303.549 60.4257 303.745 57.4895L302.747 57.423L301.749 57.3565C301.55 60.3358 301.451 63.2828 301.451 66.1976H302.451ZM302.747 57.423V56.423H298.902V57.423V58.423H302.747V57.423ZM298.902 57.423V56.423C296.978 56.423 295.99 56.055 295.567 55.6314L294.86 56.3385L294.153 57.0456C295.175 58.0681 296.882 58.423 298.902 58.423V57.423ZM294.86 56.3385L295.6 55.6659C295.186 55.2114 294.874 54.3611 294.874 52.8879H293.874H292.874C292.874 54.5696 293.218 56.0197 294.12 57.0112L294.86 56.3385ZM293.874 52.8879H294.874C294.874 51.1552 295.226 50.0408 295.762 49.3735C296.265 48.7479 297.051 48.3668 298.31 48.3668V47.3668V46.3668C296.612 46.3668 295.18 46.9059 294.203 48.1207C293.261 49.2937 292.874 50.9399 292.874 52.8879H293.874ZM298.31 47.3668V48.3668H303.93V47.3668V46.3668H298.31V47.3668ZM303.93 47.3668L304.918 47.5196C306.026 40.3504 307.718 33.8151 309.99 27.9092L309.057 27.5502L308.123 27.1912C305.794 33.2475 304.068 39.9234 302.942 47.2141L303.93 47.3668ZM309.057 27.5502L309.99 27.9092C312.26 22.0068 314.964 17.3592 318.079 13.9266L317.338 13.2546L316.598 12.5826C313.271 16.2485 310.454 21.1313 308.123 27.1912L309.057 27.5502ZM317.338 13.2546L318.072 13.934C321.227 10.5262 324.495 8.93074 327.887 8.93074V7.93074V6.93074C323.787 6.93074 320.022 8.8845 316.604 12.5752L317.338 13.2546ZM327.887 7.93074V8.93074C330.289 8.93074 332.151 9.95804 333.555 12.1228L334.394 11.5786L335.233 11.0344C333.483 8.33534 331.007 6.93074 327.887 6.93074V7.93074ZM334.394 11.5786L333.555 12.1228C335.003 14.3541 335.76 17.2081 335.76 20.7475H336.76H337.76C337.76 16.9254 336.941 13.6669 335.233 11.0344L334.394 11.5786ZM336.76 20.7475H335.76C335.76 30.6125 331.64 39.2237 323.281 46.6178L323.944 47.3668L324.606 48.1158C333.337 40.3928 337.76 31.2578 337.76 20.7475H336.76ZM323.944 47.3668V48.3668H334.986V47.3668V46.3668H323.944V47.3668ZM334.986 47.3668V48.3668C335.929 48.3668 336.361 48.579 336.546 48.7641L337.253 48.057L337.961 47.3499C337.225 46.6148 336.146 46.3668 334.986 46.3668V47.3668ZM337.253 48.057L336.546 48.7641C336.708 48.9253 336.944 49.4208 336.944 50.6203H337.944H338.944C338.944 49.3222 338.719 48.1088 337.961 47.3499L337.253 48.057ZM337.944 50.6203H336.944C336.944 52.5573 336.182 53.9259 334.637 54.8689C333.013 55.8609 330.447 56.423 326.803 56.423V57.423V58.423C330.586 58.423 333.591 57.8514 335.68 56.5758C337.849 55.2513 338.944 53.2184 338.944 50.6203H337.944ZM326.803 57.423V56.423H314.775V57.423V58.423H326.803V57.423ZM325.225 17.3954V16.3954C324.302 16.3954 323.525 16.9703 322.903 17.6652C322.259 18.3852 321.62 19.4116 320.979 20.6946L321.873 21.1418L322.768 21.589C323.375 20.3745 323.92 19.5276 324.393 18.9988C324.889 18.445 325.163 18.3954 325.225 18.3954V17.3954ZM321.873 21.1418L320.974 20.7044C319.748 23.2249 318.578 26.7176 317.453 31.1493L318.423 31.3952L319.392 31.6412C320.502 27.2655 321.633 23.9225 322.773 21.5793L321.873 21.1418ZM318.423 31.3952L317.451 31.1596C316.39 35.5368 315.497 40.4021 314.77 45.7534L315.761 45.888L316.752 46.0225C317.471 40.7261 318.352 35.9296 319.395 31.6308L318.423 31.3952ZM315.761 45.888L316.415 46.6445C320.387 43.2107 323.372 39.3525 325.345 35.0668L324.437 34.6487L323.528 34.2305C321.689 38.2264 318.89 41.8611 315.107 45.1314L315.761 45.888ZM324.437 34.6487L325.342 35.0731C327.355 30.7789 328.394 26.8195 328.394 23.2122H327.394H326.394C326.394 26.4405 325.462 30.1054 323.531 34.2243L324.437 34.6487ZM327.394 23.2122H328.394C328.394 21.2395 328.214 19.6404 327.789 18.5002C327.574 17.9237 327.273 17.3999 326.841 17.0134C326.388 16.6083 325.834 16.3954 325.225 16.3954V17.3954V18.3954C325.339 18.3954 325.419 18.4249 325.508 18.5045C325.618 18.6027 325.769 18.8061 325.915 19.199C326.213 19.9977 326.394 21.3071 326.394 23.2122H327.394ZM348.948 70.0426L349.517 69.2204L349.517 69.2204L348.948 70.0426ZM347.666 67.2821L346.674 67.158L346.666 67.2198V67.2821H347.666ZM347.765 66.4933L346.776 66.3433L346.774 66.3563L346.773 66.3693L347.765 66.4933ZM352.3 41.3528L353.28 41.5516L353.28 41.5516L352.3 41.3528ZM357.624 17.001L356.654 16.7585L356.652 16.7673L357.624 17.001ZM372.215 16.7053L371.25 16.4422L371.247 16.4546L371.244 16.4671L372.215 16.7053ZM365.412 42.043L366.374 42.3185L366.374 42.3168L365.412 42.043ZM357.328 67.775L356.385 67.4435L356.382 67.4499L357.328 67.775ZM341.849 92.1268L341.112 92.8025L341.12 92.8107L341.127 92.8187L341.849 92.1268ZM342.145 78.8171L341.425 78.1235L341.418 78.1305L341.411 78.1377L342.145 78.8171ZM355.751 78.3242L355.044 79.0313L355.06 79.0473L355.076 79.0626L355.751 78.3242ZM355.455 91.831L356.175 92.5247L356.181 92.5181L356.188 92.5115L355.455 91.831ZM352.201 70.9299V69.9299C351.036 69.9299 350.165 69.6688 349.517 69.2204L348.948 70.0426L348.379 70.8648C349.44 71.5994 350.737 71.9299 352.201 71.9299V70.9299ZM348.948 70.0426L349.517 69.2204C348.989 68.8548 348.666 68.2782 348.666 67.2821H347.666H346.666C346.666 68.7835 347.198 70.0473 348.379 70.8648L348.948 70.0426ZM347.666 67.2821L348.659 67.4061L348.757 66.6174L347.765 66.4933L346.773 66.3693L346.674 67.158L347.666 67.2821ZM347.765 66.4933L348.754 66.6434C349.868 59.3021 351.376 50.9387 353.28 41.5516L352.3 41.3528L351.32 41.1541C349.411 50.5648 347.897 58.9617 346.776 66.3433L347.765 66.4933ZM352.3 41.3528L353.28 41.5516C355.185 32.1605 356.957 24.0554 358.596 17.2348L357.624 17.001L356.652 16.7673C355.005 23.6178 353.228 31.7473 351.32 41.1541L352.3 41.3528ZM357.624 17.001L358.594 17.2436C359.076 15.3144 359.946 13.9592 361.149 13.0742C362.36 12.1835 364.014 11.6913 366.201 11.6913V10.6913V9.69127C363.722 9.69127 361.613 10.2507 359.964 11.4632C358.308 12.6815 357.223 14.4812 356.654 16.7585L357.624 17.001ZM366.201 10.6913V11.6913C368.23 11.6913 369.579 12.022 370.394 12.5439C371.133 13.017 371.511 13.6948 371.511 14.7335H372.511H373.511C373.511 13.0774 372.838 11.734 371.473 10.8598C370.184 10.0343 368.379 9.69127 366.201 9.69127V10.6913ZM372.511 14.7335H371.511C371.511 15.2162 371.43 15.7832 371.25 16.4422L372.215 16.7053L373.18 16.9684C373.395 16.1813 373.511 15.4339 373.511 14.7335H372.511ZM372.215 16.7053L371.244 16.4671C369.539 23.4182 367.275 31.8515 364.451 41.7691L365.412 42.043L366.374 42.3168C369.203 32.3849 371.474 23.9264 373.186 16.9435L372.215 16.7053ZM365.412 42.043L364.451 41.7674C361.629 51.6133 358.94 60.1711 356.385 67.4435L357.328 67.775L358.272 68.1065C360.843 60.7875 363.544 52.1907 366.374 42.3185L365.412 42.043ZM357.328 67.775L356.382 67.4499C356.088 68.3078 355.616 68.8984 354.98 69.2895C354.329 69.6905 353.425 69.9299 352.201 69.9299V70.9299V71.9299C353.672 71.9299 354.971 71.6435 356.028 70.9928C357.102 70.3323 357.846 69.3455 358.274 68.1001L357.328 67.775ZM348.455 94.493V93.493C345.744 93.493 343.839 92.7577 342.571 91.4349L341.849 92.1268L341.127 92.8187C342.883 94.6507 345.382 95.493 348.455 95.493V94.493ZM341.849 92.1268L342.587 91.4511C341.342 90.0933 340.68 88.2811 340.68 85.9156H339.68H338.68C338.68 88.6768 339.465 91.0054 341.112 92.8025L341.849 92.1268ZM339.68 85.9156H340.68C340.68 83.1508 341.443 81.0471 342.879 79.4965L342.145 78.8171L341.411 78.1377C339.561 80.1364 338.68 82.765 338.68 85.9156H339.68ZM342.145 78.8171L342.866 79.5107C344.345 77.9748 346.426 77.1552 349.244 77.1552V76.1552V75.1552C346.015 75.1552 343.364 76.1102 341.425 78.1235L342.145 78.8171ZM349.244 76.1552V77.1552C351.982 77.1552 353.851 77.839 355.044 79.0313L355.751 78.3242L356.458 77.617C354.758 75.9174 352.29 75.1552 349.244 75.1552V76.1552ZM355.751 78.3242L355.076 79.0626C356.316 80.194 357.018 81.9536 357.018 84.5353H358.018H359.018C359.018 81.5961 358.209 79.2148 356.425 77.5857L355.751 78.3242ZM358.018 84.5353H357.018C357.018 87.3608 356.225 89.5315 354.722 91.1506L355.455 91.831L356.188 92.5115C358.102 90.4498 359.018 87.7568 359.018 84.5353H358.018ZM355.455 91.831L354.735 91.1374C353.251 92.6777 351.2 93.493 348.455 93.493V94.493V95.493C351.626 95.493 354.241 94.5336 356.175 92.5247L355.455 91.831Z" fill="#C9CAD0" mask="url(#path-1-outside-1_2899_18)"/>
</svg>
