<svg width="372" height="138" viewBox="0 0 372 138" fill="none" xmlns="http://www.w3.org/2000/svg">
<path d="M38.2815 40.55C35.521 40.55 33.4506 39.9256 32.0703 38.6768C30.69 37.3623 29.9999 35.5548 29.9999 33.2543C29.9999 30.9539 30.8872 29.0478 32.6618 27.5361C34.5022 25.9587 36.7698 25.1699 39.4646 25.1699C41.8965 25.1699 43.8683 25.7615 45.38 26.9446C46.8917 28.1276 47.6476 29.8037 47.6476 31.9727C47.6476 34.6017 46.7931 36.705 45.0842 38.2824C43.3753 39.7941 41.1077 40.55 38.2815 40.55ZM56.0277 71.2116C56.8822 71.2116 57.5394 71.6388 57.9995 72.4932C58.5253 73.282 58.7882 74.3007 58.7882 75.5495C58.7882 77.0612 58.5582 78.2443 58.0981 79.0988C57.638 79.9532 56.915 80.7091 55.9291 81.3664C51.3283 84.3898 45.1828 88.5634 37.4928 93.8873C34.9294 107.558 31.6102 118.305 27.5352 126.126C23.4601 133.948 18.2677 137.859 11.9579 137.859C8.5401 137.859 5.81244 136.807 3.77491 134.704C1.67165 132.666 0.620021 129.971 0.620021 126.619C0.620021 121.953 2.42751 116.957 6.04248 111.634C9.65746 106.375 16.4602 99.8685 26.4507 92.1127L27.1408 87.0846C28.061 80.7748 28.784 74.5636 29.3098 68.451C29.7041 64.9018 30.3285 59.6108 31.183 52.578C31.4459 50.6719 32.1689 49.2917 33.352 48.4372C34.5351 47.517 36.3425 47.057 38.7744 47.057C40.7462 47.057 42.0279 47.3527 42.6195 47.9443C43.2767 48.5358 43.6054 49.3574 43.6054 50.409C43.6054 53.4325 42.5209 61.7798 40.3519 75.4509L39.366 82.2537C44.6241 78.3101 49.4222 74.8923 53.7601 72.0003C54.6146 71.4745 55.3705 71.2116 56.0277 71.2116ZM13.0424 128.295C14.7513 128.295 16.6245 126.356 18.662 122.478C20.6996 118.601 22.6056 112.357 24.3803 103.746C19.385 108.019 15.8029 111.864 13.6339 115.281C11.3992 118.765 10.2819 121.821 10.2819 124.45C10.2819 127.014 11.202 128.295 13.0424 128.295ZM61.7621 93.493C58.8044 93.493 56.3725 92.1456 54.4665 89.4508C52.6261 86.6902 51.7059 83.2724 51.7059 79.1974C51.7059 74.2679 52.0346 69.7656 52.6918 65.6905C53.3491 61.5497 54.4336 57.1789 55.9453 52.578C56.6026 50.6062 57.5227 49.1931 58.7058 48.3386C59.8889 47.4842 61.7621 47.057 64.3255 47.057C65.7715 47.057 66.7574 47.287 67.2832 47.7471C67.8747 48.2072 68.1705 48.8973 68.1705 49.8175C68.1705 50.3433 67.809 52.1179 67.086 55.1414C66.4287 57.5733 65.9029 59.7751 65.5086 61.7469C64.194 68.6482 63.5368 73.2491 63.5368 75.5495C63.5368 76.9298 63.7011 77.9157 64.0297 78.5072C64.3583 79.0331 64.8842 79.296 65.6071 79.296C66.593 79.296 67.809 78.3101 69.255 76.3383C70.7667 74.3664 72.3441 71.3759 73.9873 67.3665C75.6962 63.3572 77.3394 58.4277 78.9168 52.578C79.4426 50.6062 80.2314 49.1931 81.283 48.3386C82.4003 47.4842 84.0435 47.057 86.2125 47.057C87.7242 47.057 88.7758 47.2541 89.3674 47.6485C89.9589 47.9771 90.2547 48.6344 90.2547 49.6203C90.2547 51.2635 89.4331 55.7658 87.7899 63.1272C85.9496 71.5402 85.0294 76.7326 85.0294 78.7044C85.0294 79.9532 85.2923 80.9391 85.8181 81.6621C86.344 82.3194 87.0341 82.648 87.8885 82.648C89.2031 82.648 90.7477 81.8593 92.5223 80.2819C94.3626 78.6387 96.7945 76.0096 99.818 72.3946C100.607 71.4745 101.494 71.0144 102.48 71.0144C103.334 71.0144 103.992 71.4087 104.452 72.1975C104.978 72.9862 105.24 74.0707 105.24 75.4509C105.24 78.08 104.616 80.1175 103.367 81.5635C100.541 85.0471 97.4847 87.9062 94.1983 90.1409C90.9777 92.3756 87.297 93.493 83.1562 93.493C80.0013 93.493 77.668 92.277 76.1563 89.8451C74.7103 87.4132 73.9873 83.9954 73.9873 79.5917C72.87 84.0612 71.1939 87.5118 68.9592 89.9437C66.7245 92.3099 64.3255 93.493 61.7621 93.493ZM115.584 95.6619C112.166 95.6619 109.537 94.8732 107.697 93.2958C105.922 91.7183 105.035 89.9437 105.035 87.9719C105.035 86.263 105.659 84.7841 106.908 83.5353C108.157 82.2865 109.997 81.6621 112.429 81.6621C113.283 81.6621 114.269 81.7607 115.387 81.9579C116.57 82.0893 117.457 82.1879 118.049 82.2537C117.983 80.5448 117.589 78.9345 116.866 77.4227C116.208 75.911 115.354 74.465 114.302 73.0848C113.251 71.6388 112.265 70.39 111.345 69.3383C109.307 73.2162 107.269 76.4368 105.232 79.0002C103.26 81.5635 101.091 83.9954 98.725 86.2959C97.5419 87.4789 96.2931 88.0705 94.9786 88.0705C93.9269 88.0705 93.0725 87.709 92.4152 86.986C91.7579 86.1973 91.4293 85.2442 91.4293 84.1269C91.4293 82.8123 91.8894 81.5964 92.8096 80.479L94.0912 78.9016C97.7062 74.4322 100.434 70.7515 102.274 67.8595C103.392 65.9534 104.706 63.4229 106.218 60.268C107.73 57.0474 109.208 53.7282 110.654 50.3104C111.903 47.4185 114.499 45.9725 118.443 45.9725C120.283 45.9725 121.565 46.1368 122.288 46.4654C123.011 46.7941 123.373 47.3199 123.373 48.0429C123.373 48.4372 123.241 49.0616 122.978 49.9161C122.715 50.7705 122.354 51.625 121.894 52.4794C120.711 54.8456 120.119 56.8503 120.119 58.4934C120.119 59.4793 120.448 60.5638 121.105 61.7469C121.828 62.93 122.912 64.4088 124.358 66.1835C126.462 68.944 128.039 71.3102 129.091 73.282C130.208 75.188 130.767 77.2913 130.767 79.5917C130.767 80.249 130.701 81.1692 130.57 82.3523C133.79 81.1034 137.57 77.7842 141.908 72.3946C142.696 71.4745 143.584 71.0144 144.569 71.0144C145.424 71.0144 146.081 71.4087 146.541 72.1975C147.067 72.9862 147.33 74.0707 147.33 75.4509C147.33 77.9486 146.706 79.9861 145.457 81.5635C142.17 85.6386 139.016 88.432 135.992 89.9437C133.034 91.3897 129.354 92.1784 124.95 92.3099C122.321 94.5446 119.199 95.6619 115.584 95.6619ZM183.292 71.0144C184.146 71.0144 184.803 71.4087 185.263 72.1975C185.789 72.9862 186.052 74.0707 186.052 75.4509C186.052 78.08 185.428 80.1175 184.179 81.5635C181.353 85.0471 178.263 87.9062 174.911 90.1409C171.559 92.3756 167.714 93.493 163.376 93.493C149.968 93.493 143.264 84.0612 143.264 65.1976C143.264 62.3056 143.362 59.3807 143.56 56.423H139.715C137.743 56.423 136.395 56.0615 135.672 55.3385C135.015 54.6155 134.687 53.4653 134.687 51.8879C134.687 48.2072 136.165 46.3668 139.123 46.3668H144.743C145.86 39.1369 147.569 32.5313 149.869 26.5502C152.17 20.5691 154.93 15.8039 158.151 12.2546C161.437 8.70537 164.954 6.93074 168.7 6.93074C171.461 6.93074 173.63 8.14669 175.207 10.5786C176.785 13.0105 177.573 16.0668 177.573 19.7475C177.573 29.9351 173.301 38.8082 164.757 46.3668H175.799C176.85 46.3668 177.606 46.5969 178.066 47.057C178.526 47.517 178.756 48.3715 178.756 49.6203C178.756 54.1555 175.043 56.423 167.616 56.423H155.588C155.456 59.7094 155.39 62.2727 155.39 64.1131C155.39 70.9487 156.179 75.7467 157.757 78.5072C159.4 81.2678 161.963 82.648 165.447 82.648C168.273 82.648 170.771 81.7936 172.94 80.0847C175.109 78.3758 177.672 75.8124 180.63 72.3946C181.418 71.4745 182.306 71.0144 183.292 71.0144ZM166.038 16.3954C165.052 16.3954 163.935 17.6442 162.686 20.1418C161.503 22.5737 160.353 25.9915 159.235 30.3952C158.184 34.7332 157.297 39.5641 156.574 44.888C160.451 41.5359 163.343 37.7895 165.25 33.6487C167.221 29.4422 168.207 25.63 168.207 22.2122C168.207 18.3343 167.484 16.3954 166.038 16.3954ZM234.024 71.0144C234.878 71.0144 235.536 71.4087 235.996 72.1975C236.521 72.9862 236.784 74.0707 236.784 75.4509C236.784 78.08 236.16 80.1175 234.911 81.5635C232.216 84.8499 229.259 87.6761 226.038 90.0423C222.817 92.3427 219.63 93.493 216.475 93.493C211.48 93.493 207.667 90.5681 205.038 84.7184C202.278 88.2019 199.846 90.5352 197.743 91.7183C195.705 92.9014 193.306 93.493 190.546 93.493C186.536 93.493 183.217 92.0141 180.588 89.0564C178.025 86.033 176.743 82.1222 176.743 77.3242C176.743 72.066 177.86 67.2022 180.095 62.7328C182.33 58.1977 185.386 54.517 189.264 51.6907C193.208 48.7987 197.611 47.0898 202.475 46.564C203.724 33.813 206.09 22.9352 209.573 13.9306C213.123 4.86035 217.756 0.325197 223.475 0.325197C226.301 0.325197 228.634 1.60687 230.475 4.17022C232.381 6.73356 233.334 10.6114 233.334 15.8039C233.334 23.1653 231.526 31.7755 227.911 41.6345C224.296 51.4935 219.465 61.6154 213.419 72.0003C213.681 75.8124 214.24 78.5401 215.095 80.1833C216.015 81.8264 217.165 82.648 218.545 82.648C220.32 82.648 222.127 81.8593 223.968 80.2819C225.808 78.7044 228.273 76.0753 231.362 72.3946C232.151 71.4745 233.038 71.0144 234.024 71.0144ZM222.39 9.98704C221.141 9.98704 219.893 12.2217 218.644 16.6912C217.395 21.0949 216.31 26.8788 215.39 34.043C214.536 41.2073 213.911 48.7001 213.517 56.5216C220.879 40.4843 224.559 27.6018 224.559 17.8743C224.559 15.3766 224.329 13.4377 223.869 12.0574C223.475 10.6772 222.982 9.98704 222.39 9.98704ZM193.996 83.5353C195.245 83.5353 196.494 83.0424 197.743 82.0565C198.991 81.0049 200.569 79.0988 202.475 76.3383C201.818 72.789 201.489 68.8125 201.489 64.4088C201.489 62.8314 201.555 60.268 201.686 56.7188C198.071 57.8362 195.048 60.268 192.616 64.0145C190.25 67.6952 189.067 71.8031 189.067 76.3383C189.067 81.1363 190.71 83.5353 193.996 83.5353ZM279.045 62.7328C279.899 62.7328 280.557 63.16 281.017 64.0145C281.477 64.8689 281.707 65.9534 281.707 67.268C281.707 70.4228 280.754 72.2961 278.848 72.8876C274.904 74.2679 270.566 75.0566 265.834 75.2538C264.585 80.7748 262.12 85.2114 258.44 88.5634C254.759 91.8498 250.585 93.493 245.919 93.493C241.975 93.493 238.59 92.5399 235.764 90.6338C233.003 88.7278 230.9 86.1973 229.454 83.0424C228.008 79.8875 227.285 76.4697 227.285 72.789C227.285 67.7938 228.238 63.3572 230.144 59.4793C232.05 55.5357 234.679 52.4794 238.031 50.3104C241.383 48.0757 245.097 46.9584 249.172 46.9584C254.167 46.9584 258.177 48.7001 261.2 52.1836C264.289 55.6014 266.097 59.8408 266.623 64.9018C269.712 64.7046 273.392 64.0473 277.665 62.93C278.19 62.7985 278.651 62.7328 279.045 62.7328ZM246.707 83.0424C248.811 83.0424 250.618 82.1879 252.13 80.479C253.707 78.7701 254.759 76.3054 255.285 73.0848C253.247 71.7045 251.67 69.897 250.552 67.6623C249.501 65.4276 248.975 63.0614 248.975 60.5638C248.975 59.5122 249.074 58.4606 249.271 57.4089H248.778C246.149 57.4089 243.947 58.6906 242.172 61.2539C240.463 63.7516 239.609 67.3008 239.609 71.9017C239.609 75.5167 240.299 78.2772 241.679 80.1833C243.125 82.0893 244.801 83.0424 246.707 83.0424ZM286.16 40.55C283.4 40.55 281.329 39.9256 279.949 38.6768C278.569 37.3623 277.879 35.5548 277.879 33.2543C277.879 30.9539 278.766 29.0478 280.541 27.5361C282.381 25.9587 284.649 25.1699 287.343 25.1699C289.775 25.1699 291.747 25.7615 293.259 26.9446C294.771 28.1276 295.526 29.8037 295.526 31.9727C295.526 34.6017 294.672 36.705 292.963 38.2824C291.254 39.7941 288.987 40.55 286.16 40.55ZM285.372 93.493C281.099 93.493 277.977 91.9812 276.006 88.9578C274.1 85.9344 273.146 81.925 273.146 76.9298C273.146 73.9721 273.508 70.1928 274.231 65.5919C275.02 60.9253 276.006 56.5873 277.189 52.578C277.78 50.4748 278.569 49.0288 279.555 48.24C280.541 47.4513 282.118 47.057 284.287 47.057C287.639 47.057 289.315 48.1743 289.315 50.409C289.315 52.0522 288.691 55.8644 287.442 61.8455C285.865 69.0754 285.076 73.9721 285.076 76.5354C285.076 78.5072 285.339 80.019 285.865 81.0706C286.39 82.1222 287.278 82.648 288.527 82.648C289.71 82.648 291.188 81.8264 292.963 80.1833C294.738 78.5401 297.104 75.9439 300.062 72.3946C300.85 71.4745 301.738 71.0144 302.724 71.0144C303.578 71.0144 304.235 71.4087 304.695 72.1975C305.221 72.9862 305.484 74.0707 305.484 75.4509C305.484 78.08 304.86 80.1175 303.611 81.5635C297.104 89.5165 291.024 93.493 285.372 93.493ZM313.775 56.423C313.643 59.7094 313.578 62.2727 313.578 64.1131C313.578 68.8454 313.808 72.559 314.268 75.2538C314.794 77.8828 315.615 79.7889 316.733 80.972C317.916 82.0893 319.526 82.648 321.563 82.648C322.615 82.648 323.864 82.3194 325.31 81.6621C326.756 81.0049 328.07 80.1504 329.254 79.0988C329.977 78.4415 330.7 78.1129 331.423 78.1129C332.211 78.1129 332.836 78.573 333.296 79.4931C333.822 80.3476 334.084 81.3992 334.084 82.648C334.084 83.8968 333.822 85.1128 333.296 86.2959C332.836 87.4789 332.113 88.4649 331.127 89.2536C327.709 92.0798 323.831 93.493 319.493 93.493C313.249 93.493 308.681 90.8967 305.789 85.7043C302.897 80.4462 301.451 73.6106 301.451 65.1976C301.451 62.3056 301.55 59.3807 301.747 56.423H297.902C295.93 56.423 294.583 56.0615 293.86 55.3385C293.202 54.6155 292.874 53.4653 292.874 51.8879C292.874 48.2072 294.353 46.3668 297.31 46.3668H302.93C304.047 39.1369 305.756 32.5313 308.057 26.5502C310.357 20.5691 313.118 15.8039 316.338 12.2546C319.625 8.70537 323.141 6.93074 326.887 6.93074C329.648 6.93074 331.817 8.14669 333.394 10.5786C334.972 13.0105 335.76 16.0668 335.76 19.7475C335.76 29.9351 331.488 38.8082 322.944 46.3668H333.986C335.037 46.3668 335.793 46.5969 336.253 47.057C336.714 47.517 336.944 48.3715 336.944 49.6203C336.944 54.1555 333.23 56.423 325.803 56.423H313.775ZM324.225 16.3954C323.24 16.3954 322.122 17.6442 320.873 20.1418C319.69 22.5737 318.54 25.9915 317.423 30.3952C316.371 34.7332 315.484 39.5641 314.761 44.888C318.639 41.5359 321.531 37.7895 323.437 33.6487C325.409 29.4422 326.394 25.63 326.394 22.2122C326.394 18.3343 325.671 16.3954 324.225 16.3954ZM351.201 69.9299C349.887 69.9299 348.802 69.6341 347.948 69.0426C347.093 68.451 346.666 67.5309 346.666 66.2821L346.765 65.4933C347.882 58.1319 349.394 49.7518 351.3 40.3528C353.206 30.9539 354.981 22.8366 356.624 16.001C357.675 11.7945 360.535 9.69127 365.201 9.69127C369.408 9.69127 371.511 11.0387 371.511 13.7335C371.511 14.325 371.412 14.9823 371.215 15.7053C369.506 22.6723 367.239 31.1182 364.412 41.043C361.586 50.902 358.891 59.4793 356.328 66.775C355.605 68.8783 353.896 69.9299 351.201 69.9299ZM347.455 93.493C344.563 93.493 342.361 92.7042 340.849 91.1268C339.403 89.5493 338.68 87.4789 338.68 84.9156C338.68 81.9579 339.502 79.5917 341.145 77.8171C342.854 76.0425 345.22 75.1552 348.244 75.1552C351.136 75.1552 353.305 75.8782 354.751 77.3242C356.262 78.7044 357.018 80.7748 357.018 83.5353C357.018 86.5588 356.164 88.9907 354.455 90.831C352.746 92.6056 350.413 93.493 347.455 93.493Z" fill="#B1A3A7"/>
</svg>
